<svg width="183" height="55" viewBox="0 0 183 55" fill="none" xmlns="http://www.w3.org/2000/svg">
<g clip-path="url(#clip0_0_2002)">
<rect width="182.249" height="53.9997" transform="translate(0.249084 0.80957)" fill="white"/>
<path d="M167.985 0.809624H14.7705C14.212 0.809624 13.6602 0.809624 13.1032 0.812324C12.6369 0.815024 12.1744 0.822867 11.7036 0.829469C10.6809 0.840136 9.66066 0.919886 8.65166 1.06803C7.64408 1.21939 6.66806 1.50476 5.75661 1.91447C4.84628 2.32765 4.01448 2.86454 3.2914 3.50565C2.56451 4.14497 1.9586 4.88393 1.49696 5.69412C1.03404 6.50269 0.713054 7.36916 0.545081 8.26358C0.375511 9.15688 0.284263 10.0605 0.272158 10.9663C0.258025 11.3802 0.256532 11.7955 0.249084 12.2094V43.4135C0.256532 43.8327 0.258025 44.2388 0.272158 44.6581C0.284267 45.5638 0.375514 46.4674 0.545081 47.3606C0.71259 48.2556 1.0336 49.1225 1.49696 49.9314C1.95839 50.739 2.56439 51.475 3.2914 52.1107C4.01174 52.7547 4.84407 53.2919 5.75661 53.702C6.66805 54.1128 7.64396 54.3998 8.65166 54.5535C9.66083 54.7005 10.681 54.7803 11.7036 54.7922C12.1744 54.8014 12.6369 54.8067 13.1032 54.8067C13.6602 54.8094 14.212 54.8094 14.7705 54.8094H167.985C168.532 54.8094 169.089 54.8094 169.636 54.8067C170.1 54.8067 170.576 54.8014 171.04 54.7922C172.061 54.7809 173.079 54.7011 174.086 54.5535C175.097 54.3988 176.076 54.1118 176.992 53.702C177.904 53.2917 178.735 52.7545 179.455 52.1107C180.18 51.4725 180.788 50.737 181.255 49.9314C181.715 49.122 182.033 48.2551 182.198 47.3606C182.368 46.4673 182.462 45.5639 182.48 44.6581C182.486 44.2388 182.486 43.8327 182.486 43.4135C182.498 42.9231 182.498 42.4353 182.498 41.9369V13.6833C182.498 13.189 182.498 12.6985 182.486 12.2094C182.486 11.7955 182.486 11.3802 182.48 10.9662C182.462 10.0603 182.368 9.15695 182.198 8.26353C182.032 7.36962 181.714 6.50322 181.255 5.69406C180.315 4.07012 178.824 2.74825 176.992 1.91435C176.076 1.50564 175.097 1.22035 174.086 1.0679C173.079 0.919112 172.061 0.839334 171.04 0.82928C170.576 0.822692 170.1 0.814781 169.636 0.812148C169.089 0.809448 168.532 0.809448 167.985 0.809448V0.809624Z" fill="#090B0B"/>
<path d="M12.9795 53.6321C12.5147 53.6321 12.0611 53.6268 11.5999 53.6177C10.6445 53.6066 9.69135 53.533 8.74826 53.3974C7.86887 53.2634 7.01697 53.014 6.22067 52.6576C5.43168 52.3041 4.71205 51.8407 4.08936 51.2849C3.45766 50.7357 2.93173 50.0988 2.53243 49.3993C2.12873 48.6952 1.84935 47.9406 1.70401 47.1616C1.54706 46.3246 1.46214 45.4782 1.44999 44.6298C1.44032 44.345 1.42766 43.3969 1.42766 43.3969V12.2048C1.42766 12.2048 1.44114 11.2712 1.45007 10.9969C1.4617 10.1498 1.54613 9.3048 1.70261 8.46908C1.84821 7.68797 2.12781 6.93114 2.53173 6.22479C2.92956 5.52577 3.45257 4.88832 4.08047 4.33717C4.70766 3.78078 5.42959 3.31491 6.21993 2.95655C7.01439 2.60127 7.86468 2.35368 8.74229 2.22208C9.68849 2.08512 10.6449 2.01107 11.6036 2.00056L12.9803 1.98407H169.768L171.161 2.00122C172.111 2.01121 173.058 2.0846 173.996 2.22076C174.882 2.35401 175.742 2.60333 176.545 2.96051C178.129 3.6827 179.417 4.82527 180.23 6.22808C180.627 6.92956 180.902 7.68022 181.046 8.45458C181.204 9.29715 181.293 10.1488 181.311 11.0028C181.316 11.3852 181.316 11.796 181.316 12.2048C181.328 12.7111 181.328 13.1931 181.328 13.679V41.9384C181.328 42.429 181.328 42.9077 181.316 43.3903C181.316 43.8294 181.316 44.2316 181.31 44.6456C181.292 45.4844 181.205 46.3209 181.049 47.1484C180.907 47.9329 180.629 48.6935 180.225 49.4033C179.823 50.0952 179.3 50.7267 178.676 51.2744C178.052 51.8331 177.332 52.2993 176.541 52.6551C175.739 53.0142 174.882 53.2645 173.996 53.3974C173.053 53.5338 172.1 53.6074 171.144 53.6177C170.697 53.6268 170.23 53.6321 169.775 53.6321L168.121 53.6348L12.9795 53.6321Z" fill="#090B0B"/>
<path d="M44.5252 28.2154C44.5398 27.0886 44.8391 25.9838 45.3953 25.0037C45.9515 24.0237 46.7466 23.2003 47.7066 22.6101C47.0967 21.7391 46.2922 21.0224 45.3569 20.5167C44.4216 20.0111 43.3813 19.7305 42.3185 19.6972C40.0516 19.4593 37.8539 21.0538 36.6987 21.0538C35.5211 21.0538 33.7425 19.7209 31.8272 19.7603C30.5883 19.8003 29.381 20.1606 28.3228 20.8059C27.2645 21.4513 26.3915 22.3598 25.7888 23.4429C23.1779 27.9632 25.1254 34.6066 27.6264 38.2605C28.8777 40.0497 30.3401 42.0483 32.2537 41.9775C34.1262 41.8998 34.8256 40.7834 37.0858 40.7834C39.3252 40.7834 39.9813 41.9775 41.9337 41.9324C43.943 41.8998 45.2089 40.1352 46.4163 38.3291C47.3154 37.0542 48.0072 35.6452 48.4662 34.1542C47.2988 33.6605 46.3027 32.834 45.6018 31.7779C44.901 30.7218 44.5266 29.4828 44.5252 28.2154Z" fill="white"/>
<path d="M40.8375 17.2942C41.9331 15.979 42.4728 14.2886 42.3421 12.5818C40.6684 12.7576 39.1223 13.5576 38.0119 14.8223C37.469 15.4402 37.0532 16.1589 36.7883 16.9376C36.5234 17.7162 36.4145 18.5394 36.4679 19.3602C37.3051 19.3688 38.1333 19.1873 38.8902 18.8295C39.6471 18.4716 40.3129 17.9466 40.8375 17.2942Z" fill="white"/>
<path d="M68.1952 37.4479H61.8051L60.2706 41.9791H57.564L63.6166 25.2149H66.4286L72.4812 41.9791H69.7284L68.1952 37.4479ZM62.4669 35.357H67.5321L65.0352 28.0032H64.9653L62.4669 35.357Z" fill="white"/>
<path d="M85.5526 35.8686C85.5526 39.6667 83.5197 42.107 80.4519 42.107C79.6748 42.1476 78.9019 41.9686 78.2218 41.5904C77.5417 41.2123 76.9818 40.6502 76.6063 39.9686H76.5482V46.0225H74.0394V29.7567H76.4679V31.7896H76.514C76.9068 31.1112 77.4761 30.5521 78.1614 30.1716C78.8467 29.7911 79.6223 29.6035 80.4058 29.6288C83.5078 29.6288 85.5526 32.0809 85.5526 35.8686ZM82.9739 35.8686C82.9739 33.394 81.6951 31.7672 79.744 31.7672C77.8271 31.7672 76.5377 33.4283 76.5377 35.8686C76.5377 38.3312 77.8271 39.9805 79.744 39.9805C81.6951 39.9805 82.9739 38.3655 82.9739 35.8686Z" fill="white"/>
<path d="M99.0051 35.8685C99.0051 39.6667 96.9722 42.107 93.9044 42.107C93.1273 42.1476 92.3544 41.9686 91.6743 41.5904C90.9942 41.2123 90.4343 40.6502 90.0588 39.9686H90.0007V46.0225H87.4919V29.7567H89.9203V31.7896H89.9664C90.3592 31.1112 90.9285 30.5521 91.6138 30.1716C92.2991 29.7911 93.0748 29.6035 93.8582 29.6288C96.9603 29.6288 99.0051 32.0809 99.0051 35.8685ZM96.4264 35.8685C96.4264 33.394 95.1476 31.7671 93.1964 31.7671C91.2795 31.7671 89.9902 33.4283 89.9902 35.8685C89.9902 38.3312 91.2795 39.9805 93.1964 39.9805C95.1476 39.9805 96.4264 38.3655 96.4264 35.8685H96.4264Z" fill="white"/>
<path d="M107.896 37.3082C108.082 38.9706 109.697 40.0622 111.904 40.0622C114.019 40.0622 115.54 38.9706 115.54 37.4716C115.54 36.1704 114.622 35.3912 112.45 34.8573L110.277 34.3339C107.199 33.5904 105.77 32.1507 105.77 29.8146C105.77 26.9221 108.29 24.9354 111.87 24.9354C115.412 24.9354 117.84 26.9221 117.922 29.8146H115.39C115.238 28.1416 113.855 27.1317 111.834 27.1317C109.813 27.1317 108.43 28.1535 108.43 29.6406C108.43 30.8258 109.313 31.5232 111.474 32.0571L113.321 32.5106C116.761 33.324 118.19 34.7057 118.19 37.1578C118.19 40.2941 115.691 42.2585 111.718 42.2585C108 42.2585 105.49 40.3403 105.328 37.308L107.896 37.3082Z" fill="white"/>
<path d="M123.604 26.8642V29.7567H125.928V31.7434H123.604V38.4815C123.604 39.5283 124.07 40.0161 125.091 40.0161C125.367 40.0113 125.643 39.9919 125.917 39.958V41.9329C125.457 42.0188 124.99 42.0576 124.523 42.0489C122.049 42.0489 121.084 41.1195 121.084 38.7491V31.7434H119.306V29.7567H121.084V26.8642H123.604Z" fill="white"/>
<path d="M127.275 35.8686C127.275 32.0229 129.54 29.6064 133.071 29.6064C136.615 29.6064 138.87 32.0229 138.87 35.8686C138.87 39.7247 136.627 42.1307 133.071 42.1307C129.517 42.1307 127.275 39.7247 127.275 35.8686ZM136.313 35.8686C136.313 33.2305 135.104 31.6736 133.071 31.6736C131.038 31.6736 129.831 33.2424 129.831 35.8686C129.831 38.5171 131.038 40.0622 133.071 40.0622C135.104 40.0622 136.313 38.5171 136.313 35.8686H136.313Z" fill="white"/>
<path d="M140.938 29.7567H143.331V31.837H143.389C143.551 31.1873 143.931 30.6131 144.467 30.2109C145.002 29.8088 145.66 29.6032 146.329 29.6288C146.618 29.6278 146.906 29.6592 147.188 29.7224V32.069C146.823 31.9575 146.443 31.9063 146.061 31.9174C145.697 31.9027 145.333 31.9669 144.996 32.1058C144.659 32.2447 144.355 32.455 144.107 32.7221C143.859 32.9893 143.671 33.307 143.557 33.6535C143.443 34 143.405 34.3671 143.447 34.7295V41.9791H140.938L140.938 29.7567Z" fill="white"/>
<path d="M158.755 38.3893C158.418 40.608 156.257 42.1307 153.493 42.1307C149.937 42.1307 147.73 39.7485 147.73 35.9266C147.73 32.0928 149.949 29.6064 153.387 29.6064C156.769 29.6064 158.895 31.9293 158.895 35.6352V36.4948H150.263V36.6464C150.223 37.0962 150.279 37.5493 150.428 37.9757C150.577 38.4021 150.814 38.792 151.125 39.1194C151.436 39.4468 151.813 39.7044 152.232 39.8749C152.65 40.0454 153.099 40.125 153.551 40.1084C154.143 40.1639 154.738 40.0266 155.247 39.7169C155.756 39.4071 156.151 38.9415 156.373 38.3892L158.755 38.3893ZM150.275 34.7414H156.385C156.408 34.3369 156.346 33.9322 156.205 33.5525C156.064 33.1729 155.845 32.8266 155.564 32.5353C155.282 32.244 154.944 32.0141 154.569 31.8599C154.195 31.7057 153.792 31.6306 153.387 31.6393C152.979 31.6368 152.574 31.7153 152.196 31.8702C151.817 32.0251 151.474 32.2534 151.184 32.5418C150.895 32.8302 150.666 33.173 150.51 33.5506C150.353 33.9281 150.273 34.3328 150.275 34.7414V34.7414Z" fill="white"/>
<path d="M62.1525 12.5964C62.6785 12.5586 63.2063 12.6381 63.6978 12.829C64.1894 13.0199 64.6324 13.3176 64.995 13.7005C65.3576 14.0834 65.6307 14.542 65.7946 15.0432C65.9585 15.5444 66.0091 16.0757 65.9428 16.5989C65.9428 19.1723 64.5519 20.6516 62.1525 20.6516H59.2429V12.5964H62.1525ZM60.494 19.5124H62.0128C62.3886 19.5348 62.7647 19.4732 63.1137 19.332C63.4628 19.1908 63.7759 18.9735 64.0304 18.696C64.2848 18.4185 64.4742 18.0877 64.5847 17.7278C64.6953 17.3678 64.7241 16.9878 64.6692 16.6153C64.7201 16.2443 64.6883 15.8666 64.5761 15.5093C64.4639 15.152 64.2741 14.8239 64.0202 14.5486C63.7663 14.2733 63.4547 14.0576 63.1076 13.9169C62.7606 13.7761 62.3867 13.7139 62.0128 13.7347H60.494V19.5124Z" fill="white"/>
<path d="M67.356 17.6094C67.3178 17.2099 67.3635 16.8068 67.4902 16.426C67.6169 16.0452 67.8217 15.6951 68.0917 15.3981C68.3616 15.1012 68.6906 14.8639 69.0576 14.7015C69.4246 14.5391 69.8215 14.4553 70.2228 14.4553C70.6241 14.4553 71.021 14.5391 71.388 14.7015C71.755 14.8639 72.084 15.1012 72.3539 15.3981C72.6238 15.6951 72.8287 16.0452 72.9554 16.426C73.0821 16.8068 73.1278 17.2099 73.0895 17.6094C73.1285 18.0093 73.0833 18.4129 72.957 18.7943C72.8306 19.1757 72.6259 19.5264 72.3559 19.824C72.0859 20.1216 71.7567 20.3593 71.3893 20.5221C71.0219 20.6848 70.6246 20.7688 70.2228 20.7688C69.821 20.7688 69.4237 20.6848 69.0563 20.5221C68.6889 20.3593 68.3597 20.1216 68.0897 19.824C67.8197 19.5264 67.6149 19.1757 67.4886 18.7943C67.3622 18.4129 67.3171 18.0093 67.356 17.6094ZM71.8556 17.6094C71.8556 16.2917 71.2636 15.5211 70.2248 15.5211C69.1819 15.5211 68.5953 16.2917 68.5953 17.6094C68.5953 18.9376 69.182 19.7023 70.2248 19.7023C71.2636 19.7022 71.8556 18.9323 71.8556 17.6094H71.8556Z" fill="white"/>
<path d="M80.711 20.6514H79.4664L78.21 16.1743H78.1151L76.864 20.6514H75.6313L73.9557 14.5725H75.1726L76.2615 19.2111H76.3512L77.601 14.5725H78.7519L80.0017 19.2111H80.0966L81.1803 14.5725H82.38L80.711 20.6514Z" fill="white"/>
<path d="M83.7893 14.5725H84.9442V15.5382H85.0338C85.1859 15.1913 85.4424 14.9006 85.7676 14.7064C86.0928 14.5123 86.4704 14.4245 86.8479 14.4551C87.1437 14.4329 87.4407 14.4775 87.7169 14.5856C87.9931 14.6938 88.2414 14.8626 88.4435 15.0798C88.6456 15.2969 88.7962 15.5567 88.8842 15.84C88.9722 16.1233 88.9954 16.4227 88.952 16.7161V20.6513H87.7523V17.0174C87.7523 16.0405 87.3278 15.5547 86.4405 15.5547C86.2397 15.5453 86.0392 15.5795 85.8528 15.6549C85.6665 15.7302 85.4986 15.845 85.3607 15.9913C85.2229 16.1376 85.1183 16.312 85.0541 16.5026C84.9899 16.6931 84.9677 16.8952 84.989 17.0951V20.6514H83.7893L83.7893 14.5725Z" fill="white"/>
<path d="M90.8636 12.1995H92.0633V20.6514H90.8636V12.1995Z" fill="white"/>
<path d="M93.731 17.6093C93.6928 17.2098 93.7385 16.8067 93.8653 16.4259C93.992 16.0451 94.1969 15.695 94.4668 15.398C94.7368 15.101 95.0658 14.8638 95.4328 14.7014C95.7998 14.539 96.1968 14.4551 96.5981 14.4551C96.9994 14.4551 97.3963 14.539 97.7634 14.7014C98.1304 14.8638 98.4594 15.101 98.7294 15.398C98.9993 15.695 99.2042 16.0451 99.3309 16.4259C99.4576 16.8067 99.5034 17.2098 99.4652 17.6093C99.5041 18.0093 99.4589 18.4129 99.3325 18.7943C99.2061 19.1757 99.0013 19.5264 98.7313 19.824C98.4613 20.1215 98.132 20.3593 97.7646 20.522C97.3972 20.6847 96.9999 20.7688 96.5981 20.7688C96.1963 20.7688 95.7989 20.6847 95.4315 20.522C95.0642 20.3593 94.7349 20.1215 94.4649 19.824C94.1949 19.5264 93.9901 19.1757 93.8637 18.7943C93.7373 18.4129 93.6921 18.0093 93.731 17.6093ZM98.2305 17.6093C98.2305 16.2917 97.6386 15.5211 96.5997 15.5211C95.5569 15.5211 94.9703 16.2917 94.9703 17.6094C94.9703 18.9376 95.557 19.7022 96.5997 19.7022C97.6386 19.7022 98.2305 18.9323 98.2305 17.6093H98.2305Z" fill="white"/>
<path d="M100.728 18.9323C100.728 17.8381 101.543 17.2073 102.989 17.1176L104.636 17.0227V16.498C104.636 15.8559 104.211 15.4934 103.391 15.4934C102.722 15.4934 102.257 15.7393 102.124 16.1691H100.963C101.085 15.1249 102.068 14.4552 103.447 14.4552C104.971 14.4552 105.83 15.2139 105.83 16.498V20.6515H104.675V19.7972H104.58C104.388 20.1036 104.117 20.3534 103.796 20.5211C103.476 20.6888 103.116 20.7683 102.754 20.7516C102.499 20.7782 102.241 20.7509 101.997 20.6717C101.753 20.5924 101.529 20.4629 101.338 20.2915C101.147 20.1201 100.994 19.9106 100.889 19.6765C100.784 19.4424 100.729 19.1889 100.728 18.9323ZM104.636 18.4129V17.9047L103.151 17.9996C102.314 18.0556 101.934 18.3404 101.934 18.8763C101.934 19.4234 102.409 19.7418 103.062 19.7418C103.253 19.7611 103.446 19.7418 103.63 19.685C103.813 19.6282 103.984 19.535 104.13 19.411C104.277 19.287 104.398 19.1348 104.485 18.9633C104.571 18.7918 104.623 18.6046 104.636 18.4129Z" fill="white"/>
<path d="M107.407 17.6093C107.407 15.6885 108.394 14.4717 109.93 14.4717C110.31 14.4542 110.687 14.5452 111.017 14.734C111.347 14.9229 111.617 15.2018 111.794 15.5382H111.884V12.1995H113.084V20.6514H111.934V19.691H111.839C111.648 20.0251 111.369 20.3005 111.033 20.4875C110.696 20.6744 110.315 20.7658 109.93 20.7516C108.384 20.7517 107.407 19.5348 107.407 17.6093ZM108.646 17.6093C108.646 18.8987 109.254 19.6745 110.27 19.6745C111.282 19.6745 111.907 18.8875 111.907 17.6146C111.907 16.3477 111.275 15.5494 110.27 15.5494C109.261 15.5494 108.646 16.3305 108.646 17.6093H108.646Z" fill="white"/>
<path d="M118.047 17.6094C118.009 17.2099 118.055 16.8068 118.182 16.426C118.308 16.0452 118.513 15.6951 118.783 15.3981C119.053 15.1012 119.382 14.8639 119.749 14.7015C120.116 14.5391 120.513 14.4553 120.914 14.4553C121.315 14.4553 121.712 14.5391 122.079 14.7015C122.446 14.8639 122.775 15.1012 123.045 15.3981C123.315 15.6951 123.52 16.0452 123.647 16.426C123.773 16.8068 123.819 17.2099 123.781 17.6094C123.82 18.0093 123.775 18.4129 123.648 18.7943C123.522 19.1757 123.317 19.5264 123.047 19.824C122.777 20.1216 122.448 20.3593 122.081 20.5221C121.713 20.6848 121.316 20.7688 120.914 20.7688C120.512 20.7688 120.115 20.6848 119.748 20.5221C119.38 20.3593 119.051 20.1216 118.781 19.824C118.511 19.5264 118.306 19.1757 118.18 18.7943C118.054 18.4129 118.008 18.0093 118.047 17.6094ZM122.547 17.6094C122.547 16.2917 121.955 15.5211 120.916 15.5211C119.873 15.5211 119.287 16.2917 119.287 17.6094C119.287 18.9376 119.873 19.7023 120.916 19.7023C121.955 19.7022 122.547 18.9323 122.547 17.6094Z" fill="white"/>
<path d="M125.391 14.5725H126.545V15.5382H126.635C126.787 15.1913 127.044 14.9006 127.369 14.7064C127.694 14.5123 128.072 14.4245 128.449 14.4551C128.745 14.4329 129.042 14.4775 129.318 14.5856C129.594 14.6938 129.843 14.8626 130.045 15.0798C130.247 15.2969 130.397 15.5567 130.485 15.84C130.574 16.1233 130.597 16.4227 130.553 16.7161V20.6513H129.354V17.0174C129.354 16.0405 128.929 15.5547 128.042 15.5547C127.841 15.5453 127.641 15.5795 127.454 15.6549C127.268 15.7302 127.1 15.845 126.962 15.9913C126.824 16.1376 126.72 16.312 126.655 16.5026C126.591 16.6931 126.569 16.8952 126.59 17.0951V20.6514H125.391V14.5725Z" fill="white"/>
<path d="M137.332 13.059V14.6002H138.649V15.6107H137.332V18.7365C137.332 19.3733 137.595 19.6521 138.192 19.6521C138.345 19.6516 138.497 19.6424 138.649 19.6244V20.6237C138.434 20.6623 138.216 20.6828 137.997 20.685C136.663 20.685 136.131 20.2157 136.131 19.0437V15.6106H135.166V14.6001H136.131V13.059H137.332Z" fill="white"/>
<path d="M140.288 12.1995H141.477V15.5494H141.572C141.732 15.1993 141.995 14.9069 142.327 14.7121C142.658 14.5172 143.042 14.4293 143.426 14.4604C143.72 14.4444 144.014 14.4936 144.287 14.6043C144.56 14.7151 144.805 14.8847 145.005 15.1012C145.205 15.3176 145.355 15.5756 145.444 15.8565C145.533 16.1375 145.558 16.4346 145.519 16.7267V20.6514H144.318V17.0227C144.318 16.0517 143.866 15.5599 143.018 15.5599C142.812 15.543 142.605 15.5714 142.411 15.643C142.217 15.7146 142.04 15.8278 141.895 15.9746C141.749 16.1214 141.637 16.2982 141.567 16.4928C141.496 16.6874 141.469 16.895 141.488 17.1011V20.6514H140.288L140.288 12.1995Z" fill="white"/>
<path d="M152.514 19.0101C152.351 19.5657 151.998 20.0462 151.517 20.3677C151.035 20.6892 150.456 20.8312 149.88 20.7688C149.48 20.7793 149.082 20.7026 148.714 20.544C148.346 20.3853 148.017 20.1485 147.75 19.8499C147.483 19.5514 147.284 19.1983 147.167 18.8152C147.05 18.432 147.017 18.028 147.072 17.6311C147.019 17.233 147.052 16.8281 147.168 16.4438C147.285 16.0595 147.483 15.7047 147.749 15.4036C148.015 15.1025 148.342 14.8619 148.709 14.6983C149.076 14.5347 149.473 14.4518 149.875 14.4552C151.566 14.4552 152.587 15.6108 152.587 17.5197V17.9383H148.294V18.0055C148.276 18.2286 148.304 18.4531 148.377 18.6648C148.45 18.8764 148.566 19.0704 148.719 19.2343C148.871 19.3983 149.056 19.5286 149.262 19.6169C149.468 19.7052 149.689 19.7495 149.913 19.747C150.2 19.7815 150.491 19.7298 150.749 19.5986C151.006 19.4673 151.219 19.2625 151.36 19.01L152.514 19.0101ZM148.294 17.051H151.365C151.38 16.847 151.352 16.6421 151.283 16.4494C151.215 16.2567 151.106 16.0806 150.965 15.9323C150.824 15.784 150.654 15.6668 150.465 15.5882C150.276 15.5097 150.073 15.4716 149.868 15.4762C149.661 15.4736 149.455 15.5126 149.263 15.5908C149.071 15.669 148.896 15.785 148.749 15.9317C148.603 16.0785 148.487 16.2531 148.409 16.4454C148.331 16.6376 148.292 16.8435 148.294 17.051H148.294Z" fill="white"/>
</g>
<defs>
<clipPath id="clip0_0_2002">
<rect width="182.249" height="53.9997" fill="white" transform="translate(0.249084 0.80957)"/>
</clipPath>
</defs>
</svg>
