<svg width="24" height="24" viewBox="0 0 24 24" fill="none" xmlns="http://www.w3.org/2000/svg">
<rect width="24" height="24" fill="#1E1E1E"/>
<g id="Contact us" clip-path="url(#clip0_0_1)">
<rect width="1440" height="2244" transform="translate(-80 -420)" fill="white"/>
<rect id="Rectangle 12" x="-80" y="-420" width="1440" height="1344" fill="url(#paint0_linear_0_1)"/>
<g id="Frame 1000001138">
<g id="Frame 1000001135">
<g id="ion:call">
<path id="Vector" d="M18.3279 22.5001C17.4129 22.5001 16.1276 22.1691 14.2029 21.0938C11.8624 19.7813 10.0521 18.5696 7.72432 16.2479C5.47995 14.0049 4.38776 12.5527 2.85917 9.77115C1.13229 6.63052 1.42667 4.98427 1.75573 4.28068C2.1476 3.43974 2.72604 2.93677 3.4737 2.43755C3.89836 2.15932 4.34776 1.92081 4.8162 1.72505C4.86307 1.7049 4.90667 1.68568 4.94557 1.66833C5.1776 1.5638 5.52917 1.40583 5.97448 1.57458C6.27167 1.68615 6.53698 1.91443 6.95229 2.32458C7.80401 3.16458 8.96792 5.03537 9.39729 5.95412C9.68557 6.57333 9.87635 6.98208 9.87682 7.44052C9.87682 7.97724 9.60682 8.39115 9.27917 8.83787C9.21776 8.92177 9.15682 9.00193 9.09776 9.07974C8.74104 9.54849 8.66276 9.68396 8.71432 9.92583C8.81885 10.4119 9.59838 11.859 10.8795 13.1372C12.1606 14.4155 13.5659 15.1458 14.0539 15.2499C14.306 15.3038 14.4443 15.2222 14.9281 14.8529C14.9974 14.7999 15.0687 14.7451 15.1432 14.6902C15.6429 14.3185 16.0376 14.0555 16.5617 14.0555H16.5645C17.0206 14.0555 17.411 14.2533 18.0579 14.5796C18.9017 15.0052 20.8287 16.1541 21.6739 17.0068C22.0849 17.4211 22.3142 17.6855 22.4262 17.9822C22.5949 18.429 22.436 18.7791 22.3324 19.0135C22.3151 19.0524 22.2959 19.0951 22.2757 19.1424C22.0784 19.61 21.8385 20.0585 21.559 20.4821C21.0607 21.2274 20.5559 21.8044 19.7131 22.1968C19.2803 22.4015 18.8066 22.5052 18.3279 22.5001Z" fill="url(#paint1_linear_0_1)"/>
</g>
</g>
</g>
</g>
<defs>
<linearGradient id="paint0_linear_0_1" x1="640" y1="-420" x2="640" y2="924" gradientUnits="userSpaceOnUse">
<stop stop-color="#252525"/>
<stop offset="1"/>
</linearGradient>
<linearGradient id="paint1_linear_0_1" x1="12.0022" y1="22.5002" x2="12.0753" y2="12.0009" gradientUnits="userSpaceOnUse">
<stop stop-color="#C8F8FF"/>
<stop offset="1" stop-color="#19C2D9"/>
</linearGradient>
<clipPath id="clip0_0_1">
<rect width="1440" height="2244" fill="white" transform="translate(-80 -420)"/>
</clipPath>
</defs>
</svg>
