<svg width="48" height="49" viewBox="0 0 48 49" fill="none" xmlns="http://www.w3.org/2000/svg">
<path d="M40 8.10352H33.66L30 4.10352H18L14.34 8.10352H8C6.93913 8.10352 5.92172 8.52494 5.17157 9.27509C4.42143 10.0252 4 11.0426 4 12.1035V36.1035C4 37.1644 4.42143 38.1818 5.17157 38.9319C5.92172 39.6821 6.93913 40.1035 8 40.1035H40C41.0609 40.1035 42.0783 39.6821 42.8284 38.9319C43.5786 38.1818 44 37.1644 44 36.1035V12.1035C44 11.0426 43.5786 10.0252 42.8284 9.27509C42.0783 8.52494 41.0609 8.10352 40 8.10352ZM40 36.1035H8V12.1035H16.1L19.76 8.10352H28.24L31.9 12.1035H40V36.1035ZM24 14.1035C21.3478 14.1035 18.8043 15.1571 16.9289 17.0324C15.0536 18.9078 14 21.4514 14 24.1035C14 26.7557 15.0536 29.2992 16.9289 31.1746C18.8043 33.0499 21.3478 34.1035 24 34.1035C26.6522 34.1035 29.1957 33.0499 31.0711 31.1746C32.9464 29.2992 34 26.7557 34 24.1035C34 21.4514 32.9464 18.9078 31.0711 17.0324C29.1957 15.1571 26.6522 14.1035 24 14.1035ZM24 30.1035C22.4087 30.1035 20.8826 29.4714 19.7574 28.3462C18.6321 27.2209 18 25.6948 18 24.1035C18 22.5122 18.6321 20.9861 19.7574 19.8609C20.8826 18.7357 22.4087 18.1035 24 18.1035C25.5913 18.1035 27.1174 18.7357 28.2426 19.8609C29.3679 20.9861 30 22.5122 30 24.1035C30 25.6948 29.3679 27.2209 28.2426 28.3462C27.1174 29.4714 25.5913 30.1035 24 30.1035Z" fill="url(#paint0_linear_51_1000)"/>
<defs>
<linearGradient id="paint0_linear_51_1000" x1="4" y1="-4.44645" x2="49.7892" y2="-2.16319" gradientUnits="userSpaceOnUse">
<stop stop-color="#00C5D4"/>
<stop offset="1"/>
</linearGradient>
</defs>
</svg>
