<svg width="48" height="48" viewBox="0 0 48 48" fill="none" xmlns="http://www.w3.org/2000/svg">
<path d="M40 10H33.66L30 6H18L14.34 10H8C6.93913 10 5.92172 10.4214 5.17157 11.1716C4.42143 11.9217 4 12.9391 4 14V38C4 39.0609 4.42143 40.0783 5.17157 40.8284C5.92172 41.5786 6.93913 42 8 42H40C41.0609 42 42.0783 41.5786 42.8284 40.8284C43.5786 40.0783 44 39.0609 44 38V14C44 12.9391 43.5786 11.9217 42.8284 11.1716C42.0783 10.4214 41.0609 10 40 10ZM40 38H8V14H16.1L19.76 10H28.24L31.9 14H40V38ZM24 16C21.3478 16 18.8043 17.0536 16.9289 18.9289C15.0536 20.8043 14 23.3478 14 26C14 28.6522 15.0536 31.1957 16.9289 33.0711C18.8043 34.9464 21.3478 36 24 36C26.6522 36 29.1957 34.9464 31.0711 33.0711C32.9464 31.1957 34 28.6522 34 26C34 23.3478 32.9464 20.8043 31.0711 18.9289C29.1957 17.0536 26.6522 16 24 16ZM24 32C22.4087 32 20.8826 31.3679 19.7574 30.2426C18.6321 29.1174 18 27.5913 18 26C18 24.4087 18.6321 22.8826 19.7574 21.7574C20.8826 20.6321 22.4087 20 24 20C25.5913 20 27.1174 20.6321 28.2426 21.7574C29.3679 22.8826 30 24.4087 30 26C30 27.5913 29.3679 29.1174 28.2426 30.2426C27.1174 31.3679 25.5913 32 24 32Z" fill="white"/>
</svg>
