<svg width="48" height="48" viewBox="0 0 48 48" fill="none" xmlns="http://www.w3.org/2000/svg">
<g id="white icons">
<path id="Vector" d="M0 0V48H13.2135V0H0ZM9.60106 43.9928C9.37038 43.9928 9.14488 43.8807 8.95308 43.6706C8.76128 43.4606 8.61178 43.162 8.52351 42.8128C8.43523 42.4635 8.41213 42.0791 8.45714 41.7083C8.50214 41.3375 8.61322 40.9969 8.77634 40.7296C8.93945 40.4623 9.14727 40.2802 9.37352 40.2065C9.59977 40.1327 9.83428 40.1706 10.0474 40.3152C10.2605 40.4599 10.4427 40.7049 10.5708 41.0193C10.699 41.3336 10.7674 41.7032 10.7674 42.0812C10.7674 42.5882 10.6445 43.0744 10.4258 43.4329C10.2071 43.7914 9.91039 43.9928 9.60106 43.9928ZM11.5096 11.1216H1.68695V8.34118H11.5085V11.1216H11.5096ZM11.5096 5.56079H1.68695V2.78039H11.5085V5.56079H11.5096ZM27.7323 38.319H35.4831V45.2196H39.9088V48H23.3087V45.2196H27.7344V38.319H27.7323ZM15.2207 0V35.5386H48V0H15.2196H15.2207ZM46.3035 32.7582H16.9161V2.78039H46.3035V32.7582Z" fill="white"/>
</g>
</svg>
