<svg width="48" height="49" viewBox="0 0 48 49" fill="none" xmlns="http://www.w3.org/2000/svg">
<path d="M0 0.103516V48.1035H13.2135V0.103516H0ZM9.60106 44.0963C9.37038 44.0963 9.14488 43.9842 8.95308 43.7741C8.76128 43.5641 8.61178 43.2656 8.52351 42.9163C8.43523 42.567 8.41213 42.1826 8.45714 41.8118C8.50214 41.441 8.61322 41.1004 8.77634 40.8331C8.93945 40.5658 9.14727 40.3837 9.37352 40.31C9.59977 40.2362 9.83428 40.2741 10.0474 40.4187C10.2605 40.5634 10.4427 40.8084 10.5708 41.1228C10.699 41.4371 10.7674 41.8067 10.7674 42.1848C10.7674 42.6917 10.6445 43.1779 10.4258 43.5364C10.2071 43.8949 9.91039 44.0963 9.60106 44.0963ZM11.5096 11.2251H1.68695V8.44469H11.5085V11.2251H11.5096ZM11.5096 5.6643H1.68695V2.88391H11.5085V5.6643H11.5096ZM27.7323 38.4225H35.4831V45.3231H39.9088V48.1035H23.3087V45.3231H27.7344V38.4225H27.7323ZM15.2207 0.103516V35.6421H48V0.103516H15.2196H15.2207ZM46.3035 32.8618H16.9161V2.88391H46.3035V32.8618Z" fill="url(#paint0_linear_51_570)"/>
<defs>
<linearGradient id="paint0_linear_51_570" x1="-2.10171e-06" y1="-11.2964" x2="54.9729" y2="-8.82936" gradientUnits="userSpaceOnUse">
<stop stop-color="#00C5D4"/>
<stop offset="1"/>
</linearGradient>
</defs>
</svg>
