<svg width="183" height="55" viewBox="0 0 183 55" fill="none" xmlns="http://www.w3.org/2000/svg">
<g clip-path="url(#clip0_2_4225)">
<rect y="0.916016" width="182.249" height="54" rx="8" fill="#090B0B"/>
<path d="M6.74997 1.59101H175.499C178.854 1.59101 181.574 4.31087 181.574 7.66598V48.1658C181.574 51.5209 178.854 54.2407 175.499 54.2407H6.74997C3.39485 54.2407 0.674997 51.5209 0.674997 48.1658V7.66598C0.674997 4.31087 3.39485 1.59101 6.74997 1.59101Z" fill="#090B0B" stroke="#090B0B" stroke-width="1.34999"/>
<path d="M175.498 1.59101H175.499C175.499 1.59101 175.499 1.59102 175.5 1.59102C177.109 1.59637 178.651 2.23806 179.789 3.37611C180.927 4.51417 181.569 6.05616 181.574 7.66554C181.574 7.66569 181.574 7.66584 181.574 7.66598L175.499 1.32074H175.498M175.498 1.59101C175.498 1.59101 175.497 1.59101 175.497 1.59101L175.498 1.32074M175.498 1.59101H6.75097M175.498 1.59101H6.75097M175.498 1.32074H6.75115M175.498 1.32074H6.75115M6.75115 1.32074L6.74997 1.32074L6.75115 1.32074ZM6.75115 1.32074L6.75194 1.59101C6.75162 1.59101 6.75129 1.59101 6.75097 1.59101M6.75115 1.32074L0.674997 7.66598C0.674997 7.66583 0.675001 7.66569 0.675001 7.66554C0.680349 6.05616 1.32204 4.51417 2.4601 3.37611C2.46011 3.3761 2.46012 3.37609 2.46013 3.37608C3.59818 2.23805 5.14014 1.59637 6.74951 1.59102C6.74966 1.59102 6.74981 1.59101 6.74997 1.59101H6.75097M0.404998 7.66717V48.1646V7.66717ZM0.674997 48.1648V7.66699V48.1648Z" fill="#090B0B" stroke="#090B0B" stroke-width="1.34999"/>
<path d="M-nan -nanL64.0181 14.7443C64.0427 15.2397 63.9661 15.7349 63.7932 16.1997C63.6202 16.6646 63.3545 17.0894 63.0121 17.4482C62.6284 17.8462 62.1651 18.1586 61.6523 18.3651C61.1396 18.5716 60.589 18.6675 60.0366 18.6466C59.4807 18.6516 58.9294 18.5454 58.4151 18.3343C57.9009 18.1231 57.434 17.8113 57.042 17.4172C56.6499 17.0231 56.3406 16.5545 56.1322 16.0391C55.9239 15.5237 55.8206 14.9719 55.8286 14.416C55.8207 13.8601 55.924 13.3083 56.1323 12.7929C56.3407 12.2775 56.65 11.8089 57.042 11.4147C57.4341 11.0205 57.9009 10.7087 58.4152 10.4974C58.9294 10.2862 59.4807 10.1799 60.0366 10.1847C60.6082 10.183 61.174 10.2986 61.6991 10.5243C62.0426 10.6635 62.3594 10.8584 62.6374 11.1003C62.8352 11.2724 62.8224 11.5731 62.6371 11.7585C62.4308 11.965 62.0938 11.9471 61.8648 11.7662C61.6794 11.6198 61.4753 11.4976 61.2573 11.4031C60.8728 11.2365 60.4552 11.1604 60.0366 11.1808C59.6153 11.1786 59.1979 11.2614 58.8094 11.4244C58.4209 11.5874 58.0692 11.8271 57.7755 12.1291C57.4818 12.4312 57.2521 12.7894 57.1002 13.1824C56.9482 13.5754 56.8771 13.9949 56.8911 14.416C56.8811 15.0467 57.0586 15.6662 57.4011 16.1959C57.7435 16.7256 58.2356 17.1417 58.8149 17.3914C59.3942 17.6411 60.0345 17.7131 60.6548 17.5984C61.2751 17.4836 61.8473 17.1873 62.2989 16.7469C62.371 16.6693 62.4378 16.5876 62.4991 16.5024C62.9771 15.8386 62.2984 15.1061 61.4803 15.1061H60.5231C60.2544 15.1061 60.0366 14.8883 60.0366 14.6197C60.0366 14.351 60.2544 14.1332 60.5231 14.1332H63.6822C63.844 14.1332 63.9845 14.2486 64.0008 14.4096C64.012 14.5208 64.0178 14.6325 64.0181 14.7443L-nan -nanZ" fill="white" stroke="white" stroke-miterlimit="10"/>
<path d="M70.2367 10.8639C70.2367 11.1387 70.0139 11.3616 69.739 11.3616H67.832C67.1229 11.3616 66.548 11.9364 66.548 12.6456C66.548 13.3548 67.1229 13.9297 67.832 13.9297H69.3877C69.6564 13.9297 69.8742 14.1475 69.8742 14.4162C69.8742 14.6849 69.6564 14.9027 69.3877 14.9027H67.832C67.1229 14.9027 66.548 15.4776 66.548 16.1868C66.548 16.8959 67.1229 17.4708 67.832 17.4708H69.739C70.0139 17.4708 70.2367 17.6936 70.2367 17.9685C70.2367 18.2434 70.0139 18.4662 69.739 18.4662H67.8723C66.5664 18.4662 65.5078 17.4076 65.5078 16.1017V12.7307C65.5078 11.4248 66.5664 10.3662 67.8723 10.3662H69.739C70.0139 10.3662 70.2367 10.589 70.2367 10.8639Z" fill="white"/>
<path d="M74.6242 17.9454C74.6242 18.233 74.391 18.4662 74.1034 18.4662C73.8158 18.4662 73.5826 18.233 73.5826 17.9454V12.4927C73.5826 11.868 73.0762 11.3616 72.4515 11.3616H71.818C71.5431 11.3616 71.3203 11.1387 71.3203 10.8639C71.3203 10.589 71.5431 10.3662 71.818 10.3662H76.3888C76.6636 10.3662 76.8865 10.589 76.8865 10.8639C76.8865 11.1387 76.6636 11.3616 76.3888 11.3616H75.7553C75.1306 11.3616 74.6242 11.868 74.6242 12.4927V17.9454Z" fill="white" stroke="url(#paint0_linear_2_4225)" stroke-width="0.269999" stroke-miterlimit="10"/>
<path d="M81.4341 18.4662C81.1469 18.4662 80.9141 18.2333 80.9141 17.9461V10.8863C80.9141 10.5991 81.1469 10.3662 81.4341 10.3662C81.7214 10.3662 81.9542 10.5991 81.9542 10.8863V17.9461C81.9542 18.2333 81.7214 18.4662 81.4341 18.4662Z" fill="white" stroke="url(#paint1_linear_2_4225)" stroke-width="0.269999" stroke-miterlimit="10"/>
<path d="M86.5693 17.9454C86.5693 18.233 86.3362 18.4662 86.0486 18.4662C85.761 18.4662 85.5278 18.233 85.5278 17.9454V12.4927C85.5278 11.868 85.0214 11.3616 84.3967 11.3616H83.7633C83.4884 11.3616 83.2656 11.1387 83.2656 10.8639C83.2656 10.589 83.4884 10.3662 83.7633 10.3662H88.334C88.6088 10.3662 88.8316 10.589 88.8316 10.8639C88.8316 11.1387 88.6088 11.3616 88.334 11.3616H87.7005C87.0758 11.3616 86.5693 11.868 86.5693 12.4927V17.9454Z" fill="white" stroke="url(#paint2_linear_2_4225)" stroke-width="0.269999" stroke-miterlimit="10"/>
<path d="M99.3755 17.419C98.5871 18.2051 97.5192 18.6465 96.406 18.6465C95.2927 18.6465 94.2248 18.2051 93.4364 17.419C93.0463 17.024 92.7397 16.5546 92.5348 16.0386C92.3298 15.5227 92.2307 14.9709 92.2433 14.4159C92.2307 13.8609 92.3298 13.309 92.5348 12.7931C92.7397 12.2771 93.0463 11.8077 93.4364 11.4127C93.8261 11.0229 94.2888 10.7138 94.7981 10.503C95.3074 10.2923 95.8532 10.1841 96.4044 10.1846C96.9556 10.1851 97.5012 10.2942 98.0102 10.5059C98.5191 10.7175 98.9813 11.0274 99.3703 11.4179C99.7606 11.8119 100.068 12.2803 100.274 12.7953C100.479 13.3103 100.58 13.8614 100.569 14.4159C100.581 14.9708 100.482 15.5226 100.277 16.0385C100.072 16.5543 99.7653 17.0238 99.3755 17.419ZM94.2049 16.7408C94.7888 17.3237 95.5802 17.6511 96.4053 17.6511C97.2304 17.6511 98.0217 17.3237 98.6056 16.7408C98.9051 16.4343 99.1392 16.0702 99.294 15.6706C99.4488 15.271 99.5209 14.8441 99.5061 14.4159C99.5209 13.9876 99.4488 13.5607 99.294 13.1611C99.1392 12.7615 98.9051 12.3975 98.6056 12.0909C98.0217 11.508 97.2304 11.1806 96.4053 11.1806C95.5802 11.1806 94.7888 11.508 94.2049 12.0909C93.9059 12.3977 93.6721 12.7619 93.5176 13.1614C93.3631 13.561 93.291 13.9877 93.3058 14.4159C93.291 14.844 93.3631 15.2707 93.5176 15.6703C93.6721 16.0699 93.9059 16.434 94.2049 16.7408Z" fill="white" stroke="url(#paint3_linear_2_4225)" stroke-width="0.269999" stroke-miterlimit="10"/>
<path d="M102.544 18.4662C102.256 18.4662 102.023 18.2333 102.023 17.9461V11.1813C102.023 10.7311 102.388 10.3662 102.839 10.3662C103.12 10.3662 103.381 10.511 103.53 10.7494L107.219 16.654C107.224 16.6623 107.233 16.6673 107.243 16.6673C107.259 16.6673 107.271 16.6541 107.271 16.6382L107.227 15.1063V10.887C107.227 10.5994 107.46 10.3662 107.748 10.3662C108.035 10.3662 108.269 10.5994 108.269 10.887V17.7676C108.269 18.1534 107.956 18.4662 107.57 18.4662C107.329 18.4662 107.105 18.3418 106.977 18.1371L103.072 11.8732C103.067 11.8649 103.058 11.8598 103.048 11.8598C103.032 11.8598 103.019 11.873 103.02 11.8889L103.064 13.4208V17.9461C103.064 18.2333 102.831 18.4662 102.544 18.4662Z" fill="white" stroke="url(#paint4_linear_2_4225)" stroke-width="0.269999" stroke-miterlimit="10"/>
<mask id="path-11-inside-1_2_4225" fill="white">
<path d="M91.9835 30.2805C90.8488 30.2848 89.7408 30.6252 88.7994 31.2588C87.8581 31.8923 87.1255 32.7905 86.6943 33.8401C86.2631 34.8896 86.1525 36.0434 86.3765 37.1558C86.6005 38.2681 87.149 39.2892 87.9529 40.09C88.7568 40.8908 89.7799 41.4355 90.8931 41.6553C92.0063 41.8751 93.1597 41.7601 94.2076 41.3248C95.2555 40.8896 96.1509 40.1537 96.7809 39.2099C97.4108 38.2661 97.747 37.1569 97.747 36.0222C97.7581 35.2632 97.6165 34.5098 97.3305 33.8067C97.0446 33.1036 96.6201 32.4653 96.0824 31.9296C95.5446 31.3939 94.9046 30.9718 94.2005 30.6885C93.4963 30.4053 92.7424 30.2665 91.9835 30.2805ZM91.9835 39.5021C91.2847 39.5519 90.5871 39.3902 89.9815 39.038C89.3759 38.6858 88.8903 38.1594 88.5881 37.5274C88.2858 36.8954 88.1809 36.187 88.2869 35.4945C88.3928 34.802 88.7048 34.1575 89.1823 33.6448C89.6597 33.1321 90.2804 32.775 90.9636 32.62C91.6468 32.4651 92.3609 32.5194 93.0128 32.7759C93.6647 33.0324 94.2243 33.4793 94.6186 34.0583C95.013 34.6373 95.224 35.3216 95.224 36.0222C95.2452 36.4648 95.1776 36.9071 95.0253 37.3232C94.873 37.7393 94.6389 38.1207 94.337 38.4449C94.035 38.7692 93.6712 39.0298 93.267 39.2113C92.8629 39.3929 92.4264 39.4917 91.9835 39.5021ZM79.4104 30.2805C78.2757 30.2848 77.1678 30.6252 76.2264 31.2587C75.285 31.8922 74.5524 32.7904 74.1212 33.84C73.6899 34.8895 73.5793 36.0433 73.8033 37.1557C74.0273 38.2681 74.5758 39.2891 75.3797 40.09C76.1836 40.8908 77.2067 41.4355 78.3199 41.6553C79.4331 41.8751 80.5865 41.7601 81.6344 41.3249C82.6823 40.8896 83.5777 40.1537 84.2077 39.2099C84.8376 38.2661 85.1738 37.1569 85.1738 36.0222C85.185 35.2633 85.0434 34.5098 84.7574 33.8068C84.4714 33.1037 84.047 32.4653 83.5092 31.9296C82.9715 31.3939 82.3316 30.9719 81.6274 30.6886C80.9233 30.4053 80.1693 30.2665 79.4104 30.2805ZM79.4104 39.5021C78.7116 39.5519 78.014 39.3902 77.4084 39.038C76.8029 38.6858 76.3173 38.1594 76.0151 37.5274C75.7128 36.8954 75.6078 36.187 75.7138 35.4945C75.8198 34.802 76.1318 34.1575 76.6092 33.6448C77.0867 33.1321 77.7074 32.775 78.3906 32.62C79.0738 32.4651 79.7878 32.5194 80.4397 32.7759C81.0917 33.0324 81.6512 33.4793 82.0456 34.0583C82.44 34.6373 82.6509 35.3216 82.651 36.0222C82.6722 36.4648 82.6046 36.9071 82.4523 37.3232C82.3 37.7393 82.0659 38.1207 81.764 38.445C81.462 38.7692 81.0982 39.0298 80.694 39.2114C80.2898 39.3929 79.8534 39.4917 79.4104 39.5021ZM65.672 32.0423C64.9994 32.0423 64.4541 32.5875 64.4541 33.2602C64.4541 33.9328 64.9994 34.4781 65.672 34.4781H67.2614C68.8931 34.4781 70.215 35.9721 69.2045 37.2532C69.1257 37.3532 69.0429 37.4504 68.9562 37.5447C68.3721 38.1401 67.6697 38.6064 66.8942 38.9136C66.1187 39.2208 65.2875 39.3619 64.4541 39.328C62.7504 39.305 61.1243 38.612 59.9276 37.399C58.731 36.1861 58.0601 34.5507 58.0601 32.8469C58.0601 31.143 58.731 29.5076 59.9276 28.2947C61.1243 27.0817 62.7504 26.3888 64.4541 26.3657C65.6871 26.3496 66.8874 26.7005 67.9082 27.3605C68.4681 27.7224 69.2252 27.7279 69.6966 27.2565C70.1759 26.7772 70.1782 25.9912 69.6329 25.5888C69.0559 25.1631 68.4261 24.811 67.7577 24.5423C66.7083 24.1203 65.5851 23.912 64.4541 23.9298C63.2722 23.9125 62.0986 24.1305 61.0017 24.5709C59.9047 25.0113 58.9063 25.6654 58.0644 26.4951C57.2224 27.3249 56.5539 28.3137 56.0976 29.4041C55.6412 30.4945 55.4062 31.6648 55.4062 32.8469C55.4062 34.0289 55.6412 35.1992 56.0976 36.2896C56.5539 37.38 57.2224 38.3689 58.0644 39.1986C58.9063 40.0284 59.9047 40.6824 61.0017 41.1228C62.0986 41.5632 63.2722 41.7812 64.4541 41.764C65.609 41.8119 66.7608 41.6136 67.8332 41.1824C68.9057 40.7512 69.8741 40.0969 70.6744 39.2628C72.0951 37.7121 72.8524 35.6668 72.7841 33.5647C72.7938 32.678 72.0098 32.0423 71.1231 32.0423H65.672ZM125.62 33.9343C125.275 32.8943 124.618 31.9857 123.739 31.332C122.859 30.6784 121.8 30.3112 120.705 30.2805C119.967 30.2851 119.238 30.4392 118.561 30.7336C117.885 31.0279 117.275 31.4564 116.769 31.9931C116.263 32.5298 115.871 33.1635 115.616 33.856C115.362 34.5486 115.251 35.2855 115.289 36.0222C115.273 36.7771 115.408 37.5276 115.688 38.2288C115.968 38.9301 116.387 39.5678 116.919 40.1037C117.45 40.6397 118.085 41.0629 118.784 41.3482C119.483 41.6334 120.233 41.7748 120.988 41.764C121.933 41.7692 122.866 41.5394 123.701 41.0953C124.196 40.8318 124.648 40.4978 125.044 40.1053C125.494 39.6581 125.344 38.9341 124.816 38.582C124.271 38.2184 123.538 38.407 123.021 38.8098C122.892 38.9104 122.755 39.0015 122.611 39.0822C122.115 39.3605 121.556 39.5052 120.988 39.5021C120.403 39.5244 119.824 39.3705 119.328 39.0603C118.517 38.5536 118.931 37.4614 119.814 37.096L125.232 34.8555C125.592 34.7066 125.765 34.2959 125.62 33.9343ZM118.947 35.3681C118.38 35.6036 117.756 35.1959 117.957 34.6155C118.094 34.2198 118.308 33.8553 118.588 33.5434C118.867 33.2315 119.206 32.9785 119.584 32.7992C119.963 32.6198 120.373 32.5178 120.792 32.499C121.227 32.4703 121.662 32.5705 122.041 32.7871C122.65 33.1355 122.371 33.9463 121.722 34.2156L118.947 35.3681ZM111.548 40.1545C111.548 40.8512 112.113 41.4159 112.81 41.4159C113.506 41.4159 114.071 40.8512 114.071 40.1545V25.8003C114.071 25.1036 113.506 24.5389 112.81 24.5389C112.113 24.5389 111.548 25.1036 111.548 25.8003V40.1545ZM107.416 31.5033C107.416 31.5366 107.389 31.5637 107.356 31.5637C107.339 31.5637 107.323 31.5566 107.311 31.5443C106.931 31.1367 106.469 30.8135 105.956 30.5956C105.435 30.3744 104.872 30.2669 104.306 30.2805C102.825 30.3435 101.426 30.976 100.401 32.0459C99.3758 33.1158 98.8034 34.5404 98.8034 36.0223C98.8034 37.5041 99.3758 38.9287 100.401 39.9986C101.426 41.0685 102.825 41.701 104.306 41.764C104.874 41.7791 105.439 41.6702 105.961 41.4448C106.475 41.223 106.935 40.8937 107.311 40.4791C107.323 40.4664 107.339 40.4591 107.356 40.4591C107.389 40.4591 107.416 40.486 107.416 40.5191V41.2855C107.416 43.4823 106.242 44.6566 104.349 44.6566C103.719 44.6415 103.107 44.439 102.592 44.0749C102.409 43.9455 102.241 43.7978 102.09 43.6346C101.641 43.1477 100.951 42.8225 100.34 43.0768C99.7427 43.325 99.4493 44.0194 99.8161 44.5517C100.208 45.1203 100.706 45.6126 101.286 45.9996C102.193 46.6041 103.26 46.924 104.349 46.9185C107.307 46.9185 109.808 45.1786 109.808 40.9375V31.8247C109.808 31.164 109.273 30.6284 108.612 30.6284H107.884C107.625 30.6284 107.416 30.8378 107.416 31.0961V31.5033ZM104.524 39.5021C103.652 39.4281 102.839 39.0295 102.247 38.3851C101.655 37.7406 101.326 36.8974 101.326 36.0223C101.326 35.1471 101.655 34.3039 102.247 33.6594C102.839 33.015 103.652 32.6164 104.524 32.5424C104.957 32.5636 105.383 32.6719 105.774 32.8609C106.165 33.0499 106.514 33.3157 106.8 33.6425C107.086 33.9692 107.303 34.3502 107.439 34.7628C107.507 34.9689 107.554 35.1807 107.579 35.395C107.63 35.8247 107.629 36.2634 107.575 36.6928C107.549 36.9041 107.502 37.1128 107.434 37.3158C107.297 37.7249 107.078 38.1021 106.792 38.425C106.506 38.7478 106.157 39.0096 105.768 39.1947C105.378 39.3797 104.955 39.4843 104.524 39.5021ZM137.438 24.5391C134.104 24.5391 131.402 27.2416 131.402 30.5752V40.1566C131.402 40.8521 131.965 41.4159 132.661 41.4159C133.356 41.4159 133.92 40.8521 133.92 40.1566V38.2189C133.92 36.4532 135.352 35.0218 137.117 35.0218H137.438C138.15 35.0609 138.863 34.9543 139.533 34.7085C140.203 34.4628 140.816 34.083 141.334 33.5925C141.852 33.1019 142.265 32.5109 142.547 31.8555C142.829 31.2001 142.974 30.494 142.974 29.7805C142.974 29.067 142.829 28.3609 142.547 27.7055C142.265 27.0501 141.852 26.459 141.334 25.9685C140.816 25.478 140.203 25.0982 139.533 24.8524C138.863 24.6067 138.15 24.5001 137.438 24.5391ZM137.503 32.6731H136.813C135.215 32.6731 133.92 31.3781 133.92 29.7806C133.92 28.183 135.215 26.888 136.813 26.888H137.503C137.888 26.88 138.27 26.9489 138.628 27.0907C138.986 27.2325 139.312 27.4443 139.587 27.7137C139.862 27.9831 140.081 28.3046 140.23 28.6596C140.379 29.0145 140.456 29.3956 140.456 29.7806C140.456 30.1655 140.379 30.5467 140.23 30.9016C140.081 31.2565 139.862 31.578 139.587 31.8474C139.312 32.1168 138.986 32.3286 138.628 32.4704C138.27 32.6122 137.888 32.6811 137.503 32.6731ZM153.071 30.2495C152.151 30.1958 151.236 30.4117 150.438 30.8707C150.023 31.1091 149.649 31.4078 149.327 31.7549C148.843 32.2769 149.136 33.0669 149.793 33.3411C150.372 33.583 151.028 33.3099 151.542 32.9504C151.618 32.8976 151.697 32.8491 151.779 32.8051C151.97 32.7021 152.174 32.6264 152.384 32.579C152.86 32.4713 153.366 32.469 153.845 32.5689C154.224 32.6479 154.582 32.8174 154.887 33.0673C155.384 33.4743 155.699 34.0616 155.763 34.7004C155.763 34.7792 155.679 34.8298 155.608 34.795C154.84 34.417 153.994 34.2208 153.136 34.2228C150.726 34.2228 148.272 35.5473 148.272 38.0225C148.296 38.5441 148.423 39.0557 148.648 39.527C148.873 39.9982 149.191 40.4195 149.581 40.7658C149.972 41.1121 150.429 41.3763 150.924 41.5429C151.418 41.7094 151.942 41.7748 152.462 41.7352C153.097 41.7726 153.729 41.6392 154.295 41.349C154.851 41.0634 155.321 40.6364 155.659 40.1111C155.67 40.095 155.688 40.0851 155.707 40.0851C155.738 40.0851 155.763 40.1102 155.763 40.1411V40.7365C155.763 41.0962 156.054 41.3879 156.414 41.3879H156.979C157.65 41.3879 158.195 40.8435 158.195 40.172V34.9176C158.195 31.9213 155.958 30.2495 153.071 30.2495ZM152.766 39.4988C151.941 39.4988 150.791 39.0864 150.791 38.0658C150.791 36.7632 152.224 36.2637 153.461 36.2637C153.531 36.2618 153.6 36.2616 153.67 36.263C154.992 36.2892 155.753 37.8448 154.765 38.725C154.214 39.2159 153.504 39.4908 152.766 39.4988ZM167.917 30.6186C167.396 30.6186 166.927 30.9372 166.736 31.422L164.182 37.8948C164.172 37.9194 164.148 37.9355 164.122 37.9355C164.096 37.9355 164.072 37.9197 164.062 37.8956L161.396 31.3837C161.206 30.9209 160.756 30.6186 160.256 30.6186C159.366 30.6186 158.77 31.5321 159.128 32.3463L162.302 39.5693C162.659 40.3814 162.655 41.3068 162.29 42.1156L161.058 44.8511C160.703 45.6404 161.28 46.5336 162.146 46.5336C162.621 46.5336 163.05 46.2521 163.24 45.8168L169.081 32.3947C169.446 31.5562 168.831 30.6186 167.917 30.6186ZM144.364 40.1567C144.364 40.8522 144.928 41.4159 145.623 41.4159C146.319 41.4159 146.882 40.8522 146.882 40.1567V25.7984C146.882 25.1029 146.319 24.5391 145.623 24.5391C144.928 24.5391 144.364 25.1029 144.364 25.7984V40.1567Z"/>
</mask>
<path d="M91.9835 30.2805C90.8488 30.2848 89.7408 30.6252 88.7994 31.2588C87.8581 31.8923 87.1255 32.7905 86.6943 33.8401C86.2631 34.8896 86.1525 36.0434 86.3765 37.1558C86.6005 38.2681 87.149 39.2892 87.9529 40.09C88.7568 40.8908 89.7799 41.4355 90.8931 41.6553C92.0063 41.8751 93.1597 41.7601 94.2076 41.3248C95.2555 40.8896 96.1509 40.1537 96.7809 39.2099C97.4108 38.2661 97.747 37.1569 97.747 36.0222C97.7581 35.2632 97.6165 34.5098 97.3305 33.8067C97.0446 33.1036 96.6201 32.4653 96.0824 31.9296C95.5446 31.3939 94.9046 30.9718 94.2005 30.6885C93.4963 30.4053 92.7424 30.2665 91.9835 30.2805ZM91.9835 39.5021C91.2847 39.5519 90.5871 39.3902 89.9815 39.038C89.3759 38.6858 88.8903 38.1594 88.5881 37.5274C88.2858 36.8954 88.1809 36.187 88.2869 35.4945C88.3928 34.802 88.7048 34.1575 89.1823 33.6448C89.6597 33.1321 90.2804 32.775 90.9636 32.62C91.6468 32.4651 92.3609 32.5194 93.0128 32.7759C93.6647 33.0324 94.2243 33.4793 94.6186 34.0583C95.013 34.6373 95.224 35.3216 95.224 36.0222C95.2452 36.4648 95.1776 36.9071 95.0253 37.3232C94.873 37.7393 94.6389 38.1207 94.337 38.4449C94.035 38.7692 93.6712 39.0298 93.267 39.2113C92.8629 39.3929 92.4264 39.4917 91.9835 39.5021ZM79.4104 30.2805C78.2757 30.2848 77.1678 30.6252 76.2264 31.2587C75.285 31.8922 74.5524 32.7904 74.1212 33.84C73.6899 34.8895 73.5793 36.0433 73.8033 37.1557C74.0273 38.2681 74.5758 39.2891 75.3797 40.09C76.1836 40.8908 77.2067 41.4355 78.3199 41.6553C79.4331 41.8751 80.5865 41.7601 81.6344 41.3249C82.6823 40.8896 83.5777 40.1537 84.2077 39.2099C84.8376 38.2661 85.1738 37.1569 85.1738 36.0222C85.185 35.2633 85.0434 34.5098 84.7574 33.8068C84.4714 33.1037 84.047 32.4653 83.5092 31.9296C82.9715 31.3939 82.3316 30.9719 81.6274 30.6886C80.9233 30.4053 80.1693 30.2665 79.4104 30.2805ZM79.4104 39.5021C78.7116 39.5519 78.014 39.3902 77.4084 39.038C76.8029 38.6858 76.3173 38.1594 76.0151 37.5274C75.7128 36.8954 75.6078 36.187 75.7138 35.4945C75.8198 34.802 76.1318 34.1575 76.6092 33.6448C77.0867 33.1321 77.7074 32.775 78.3906 32.62C79.0738 32.4651 79.7878 32.5194 80.4397 32.7759C81.0917 33.0324 81.6512 33.4793 82.0456 34.0583C82.44 34.6373 82.6509 35.3216 82.651 36.0222C82.6722 36.4648 82.6046 36.9071 82.4523 37.3232C82.3 37.7393 82.0659 38.1207 81.764 38.445C81.462 38.7692 81.0982 39.0298 80.694 39.2114C80.2898 39.3929 79.8534 39.4917 79.4104 39.5021ZM65.672 32.0423C64.9994 32.0423 64.4541 32.5875 64.4541 33.2602C64.4541 33.9328 64.9994 34.4781 65.672 34.4781H67.2614C68.8931 34.4781 70.215 35.9721 69.2045 37.2532C69.1257 37.3532 69.0429 37.4504 68.9562 37.5447C68.3721 38.1401 67.6697 38.6064 66.8942 38.9136C66.1187 39.2208 65.2875 39.3619 64.4541 39.328C62.7504 39.305 61.1243 38.612 59.9276 37.399C58.731 36.1861 58.0601 34.5507 58.0601 32.8469C58.0601 31.143 58.731 29.5076 59.9276 28.2947C61.1243 27.0817 62.7504 26.3888 64.4541 26.3657C65.6871 26.3496 66.8874 26.7005 67.9082 27.3605C68.4681 27.7224 69.2252 27.7279 69.6966 27.2565C70.1759 26.7772 70.1782 25.9912 69.6329 25.5888C69.0559 25.1631 68.4261 24.811 67.7577 24.5423C66.7083 24.1203 65.5851 23.912 64.4541 23.9298C63.2722 23.9125 62.0986 24.1305 61.0017 24.5709C59.9047 25.0113 58.9063 25.6654 58.0644 26.4951C57.2224 27.3249 56.5539 28.3137 56.0976 29.4041C55.6412 30.4945 55.4062 31.6648 55.4062 32.8469C55.4062 34.0289 55.6412 35.1992 56.0976 36.2896C56.5539 37.38 57.2224 38.3689 58.0644 39.1986C58.9063 40.0284 59.9047 40.6824 61.0017 41.1228C62.0986 41.5632 63.2722 41.7812 64.4541 41.764C65.609 41.8119 66.7608 41.6136 67.8332 41.1824C68.9057 40.7512 69.8741 40.0969 70.6744 39.2628C72.0951 37.7121 72.8524 35.6668 72.7841 33.5647C72.7938 32.678 72.0098 32.0423 71.1231 32.0423H65.672ZM125.62 33.9343C125.275 32.8943 124.618 31.9857 123.739 31.332C122.859 30.6784 121.8 30.3112 120.705 30.2805C119.967 30.2851 119.238 30.4392 118.561 30.7336C117.885 31.0279 117.275 31.4564 116.769 31.9931C116.263 32.5298 115.871 33.1635 115.616 33.856C115.362 34.5486 115.251 35.2855 115.289 36.0222C115.273 36.7771 115.408 37.5276 115.688 38.2288C115.968 38.9301 116.387 39.5678 116.919 40.1037C117.45 40.6397 118.085 41.0629 118.784 41.3482C119.483 41.6334 120.233 41.7748 120.988 41.764C121.933 41.7692 122.866 41.5394 123.701 41.0953C124.196 40.8318 124.648 40.4978 125.044 40.1053C125.494 39.6581 125.344 38.9341 124.816 38.582C124.271 38.2184 123.538 38.407 123.021 38.8098C122.892 38.9104 122.755 39.0015 122.611 39.0822C122.115 39.3605 121.556 39.5052 120.988 39.5021C120.403 39.5244 119.824 39.3705 119.328 39.0603C118.517 38.5536 118.931 37.4614 119.814 37.096L125.232 34.8555C125.592 34.7066 125.765 34.2959 125.62 33.9343ZM118.947 35.3681C118.38 35.6036 117.756 35.1959 117.957 34.6155C118.094 34.2198 118.308 33.8553 118.588 33.5434C118.867 33.2315 119.206 32.9785 119.584 32.7992C119.963 32.6198 120.373 32.5178 120.792 32.499C121.227 32.4703 121.662 32.5705 122.041 32.7871C122.65 33.1355 122.371 33.9463 121.722 34.2156L118.947 35.3681ZM111.548 40.1545C111.548 40.8512 112.113 41.4159 112.81 41.4159C113.506 41.4159 114.071 40.8512 114.071 40.1545V25.8003C114.071 25.1036 113.506 24.5389 112.81 24.5389C112.113 24.5389 111.548 25.1036 111.548 25.8003V40.1545ZM107.416 31.5033C107.416 31.5366 107.389 31.5637 107.356 31.5637C107.339 31.5637 107.323 31.5566 107.311 31.5443C106.931 31.1367 106.469 30.8135 105.956 30.5956C105.435 30.3744 104.872 30.2669 104.306 30.2805C102.825 30.3435 101.426 30.976 100.401 32.0459C99.3758 33.1158 98.8034 34.5404 98.8034 36.0223C98.8034 37.5041 99.3758 38.9287 100.401 39.9986C101.426 41.0685 102.825 41.701 104.306 41.764C104.874 41.7791 105.439 41.6702 105.961 41.4448C106.475 41.223 106.935 40.8937 107.311 40.4791C107.323 40.4664 107.339 40.4591 107.356 40.4591C107.389 40.4591 107.416 40.486 107.416 40.5191V41.2855C107.416 43.4823 106.242 44.6566 104.349 44.6566C103.719 44.6415 103.107 44.439 102.592 44.0749C102.409 43.9455 102.241 43.7978 102.09 43.6346C101.641 43.1477 100.951 42.8225 100.34 43.0768C99.7427 43.325 99.4493 44.0194 99.8161 44.5517C100.208 45.1203 100.706 45.6126 101.286 45.9996C102.193 46.6041 103.26 46.924 104.349 46.9185C107.307 46.9185 109.808 45.1786 109.808 40.9375V31.8247C109.808 31.164 109.273 30.6284 108.612 30.6284H107.884C107.625 30.6284 107.416 30.8378 107.416 31.0961V31.5033ZM104.524 39.5021C103.652 39.4281 102.839 39.0295 102.247 38.3851C101.655 37.7406 101.326 36.8974 101.326 36.0223C101.326 35.1471 101.655 34.3039 102.247 33.6594C102.839 33.015 103.652 32.6164 104.524 32.5424C104.957 32.5636 105.383 32.6719 105.774 32.8609C106.165 33.0499 106.514 33.3157 106.8 33.6425C107.086 33.9692 107.303 34.3502 107.439 34.7628C107.507 34.9689 107.554 35.1807 107.579 35.395C107.63 35.8247 107.629 36.2634 107.575 36.6928C107.549 36.9041 107.502 37.1128 107.434 37.3158C107.297 37.7249 107.078 38.1021 106.792 38.425C106.506 38.7478 106.157 39.0096 105.768 39.1947C105.378 39.3797 104.955 39.4843 104.524 39.5021ZM137.438 24.5391C134.104 24.5391 131.402 27.2416 131.402 30.5752V40.1566C131.402 40.8521 131.965 41.4159 132.661 41.4159C133.356 41.4159 133.92 40.8521 133.92 40.1566V38.2189C133.92 36.4532 135.352 35.0218 137.117 35.0218H137.438C138.15 35.0609 138.863 34.9543 139.533 34.7085C140.203 34.4628 140.816 34.083 141.334 33.5925C141.852 33.1019 142.265 32.5109 142.547 31.8555C142.829 31.2001 142.974 30.494 142.974 29.7805C142.974 29.067 142.829 28.3609 142.547 27.7055C142.265 27.0501 141.852 26.459 141.334 25.9685C140.816 25.478 140.203 25.0982 139.533 24.8524C138.863 24.6067 138.15 24.5001 137.438 24.5391ZM137.503 32.6731H136.813C135.215 32.6731 133.92 31.3781 133.92 29.7806C133.92 28.183 135.215 26.888 136.813 26.888H137.503C137.888 26.88 138.27 26.9489 138.628 27.0907C138.986 27.2325 139.312 27.4443 139.587 27.7137C139.862 27.9831 140.081 28.3046 140.23 28.6596C140.379 29.0145 140.456 29.3956 140.456 29.7806C140.456 30.1655 140.379 30.5467 140.23 30.9016C140.081 31.2565 139.862 31.578 139.587 31.8474C139.312 32.1168 138.986 32.3286 138.628 32.4704C138.27 32.6122 137.888 32.6811 137.503 32.6731ZM153.071 30.2495C152.151 30.1958 151.236 30.4117 150.438 30.8707C150.023 31.1091 149.649 31.4078 149.327 31.7549C148.843 32.2769 149.136 33.0669 149.793 33.3411C150.372 33.583 151.028 33.3099 151.542 32.9504C151.618 32.8976 151.697 32.8491 151.779 32.8051C151.97 32.7021 152.174 32.6264 152.384 32.579C152.86 32.4713 153.366 32.469 153.845 32.5689C154.224 32.6479 154.582 32.8174 154.887 33.0673C155.384 33.4743 155.699 34.0616 155.763 34.7004C155.763 34.7792 155.679 34.8298 155.608 34.795C154.84 34.417 153.994 34.2208 153.136 34.2228C150.726 34.2228 148.272 35.5473 148.272 38.0225C148.296 38.5441 148.423 39.0557 148.648 39.527C148.873 39.9982 149.191 40.4195 149.581 40.7658C149.972 41.1121 150.429 41.3763 150.924 41.5429C151.418 41.7094 151.942 41.7748 152.462 41.7352C153.097 41.7726 153.729 41.6392 154.295 41.349C154.851 41.0634 155.321 40.6364 155.659 40.1111C155.67 40.095 155.688 40.0851 155.707 40.0851C155.738 40.0851 155.763 40.1102 155.763 40.1411V40.7365C155.763 41.0962 156.054 41.3879 156.414 41.3879H156.979C157.65 41.3879 158.195 40.8435 158.195 40.172V34.9176C158.195 31.9213 155.958 30.2495 153.071 30.2495ZM152.766 39.4988C151.941 39.4988 150.791 39.0864 150.791 38.0658C150.791 36.7632 152.224 36.2637 153.461 36.2637C153.531 36.2618 153.6 36.2616 153.67 36.263C154.992 36.2892 155.753 37.8448 154.765 38.725C154.214 39.2159 153.504 39.4908 152.766 39.4988ZM167.917 30.6186C167.396 30.6186 166.927 30.9372 166.736 31.422L164.182 37.8948C164.172 37.9194 164.148 37.9355 164.122 37.9355C164.096 37.9355 164.072 37.9197 164.062 37.8956L161.396 31.3837C161.206 30.9209 160.756 30.6186 160.256 30.6186C159.366 30.6186 158.77 31.5321 159.128 32.3463L162.302 39.5693C162.659 40.3814 162.655 41.3068 162.29 42.1156L161.058 44.8511C160.703 45.6404 161.28 46.5336 162.146 46.5336C162.621 46.5336 163.05 46.2521 163.24 45.8168L169.081 32.3947C169.446 31.5562 168.831 30.6186 167.917 30.6186ZM144.364 40.1567C144.364 40.8522 144.928 41.4159 145.623 41.4159C146.319 41.4159 146.882 40.8522 146.882 40.1567V25.7984C146.882 25.1029 146.319 24.5391 145.623 24.5391C144.928 24.5391 144.364 25.1029 144.364 25.7984V40.1567Z" fill="white" stroke="white" stroke-width="2.69999" mask="url(#path-11-inside-1_2_4225)"/>
<path d="M14.1408 12.9888V12.9685L14.1396 12.9482C14.121 12.6382 14.1739 12.331 14.2908 12.0491L30.1583 27.917L14.2906 43.7846C14.1737 43.5028 14.1209 43.1958 14.1396 42.886L14.1408 42.8657V42.8453V12.9888ZM13.8119 44.2634C13.812 44.2632 13.8122 44.263 13.8124 44.2628L13.8119 44.2634Z" fill="url(#paint5_linear_2_4225)" stroke="#090B0B" stroke-width="1.34999"/>
<path d="M42.8875 26.5552L42.8876 26.5553C43.7082 27.0215 43.9611 27.5405 43.9611 27.9173C43.9611 28.2941 43.7081 28.8134 42.8874 29.2799L36.6028 32.8509L31.6713 27.9169L36.6036 22.9847L42.8875 26.5552Z" fill="url(#paint6_linear_2_4225)" stroke="#090B0B" stroke-width="1.34999"/>
<path d="M32.8992 30.8602C34.2122 32.1733 33.9145 34.3759 32.2999 35.2933L17.07 43.9469C16.9357 44.0232 16.796 44.1118 16.6747 44.1888C16.6285 44.2181 16.5849 44.2458 16.5453 44.2704C16.3868 44.369 16.2543 44.4443 16.1245 44.4985C15.9263 44.5812 15.7114 44.6216 15.4936 44.6152C15.4801 44.6148 15.47 44.6138 15.4625 44.6126C15.461 44.6071 15.4595 44.5999 15.4582 44.5908C15.4434 44.4884 15.4859 44.2965 15.6397 44.1427L28.9224 30.86C30.0206 29.7619 31.8011 29.7619 32.8992 30.8602ZM15.4454 44.6082C15.4455 44.6082 15.4464 44.6085 15.448 44.6094C15.4461 44.6087 15.4453 44.6083 15.4454 44.6082ZM15.4676 44.6269C15.4681 44.6276 15.4682 44.628 15.4682 44.628L15.4676 44.6269Z" fill="url(#paint7_linear_2_4225)" stroke="#090B0B" stroke-width="1.34999"/>
<path d="M32.2999 20.5405C33.9145 21.4579 34.2123 23.6606 32.8993 24.9737C31.8011 26.072 30.0206 26.0721 28.9224 24.9739L15.6397 11.6912C15.4859 11.5373 15.4434 11.3455 15.4582 11.2431C15.4595 11.2339 15.461 11.2268 15.4625 11.2212C15.47 11.2201 15.4801 11.219 15.4936 11.2186C15.7114 11.2122 15.9263 11.2526 16.1245 11.3354C16.2543 11.3895 16.3868 11.4648 16.5453 11.5634C16.5849 11.5881 16.6285 11.6157 16.6747 11.6451C16.796 11.722 16.9357 11.8107 17.07 11.887L32.2999 20.5405ZM15.4682 11.2059C15.4682 11.2059 15.468 11.2063 15.4676 11.207L15.4682 11.2059ZM15.4479 11.2245C15.4464 11.2254 15.4455 11.2257 15.4454 11.2256C15.4453 11.2255 15.4461 11.2251 15.4479 11.2245Z" fill="url(#paint8_linear_2_4225)" stroke="#090B0B" stroke-width="1.34999"/>
<path opacity="0.2" d="M14.1852 44.7423L14.1359 44.693L14.1918 44.7489L14.1852 44.7423Z" fill="#090B0B" stroke="#090B0B" stroke-width="1.34999"/>
<g opacity="0.12">
<mask id="path-17-inside-2_2_4225" fill="white">
<path d="M14.0906 44.546C13.648 44.0167 13.4244 43.3382 13.4658 42.6494V42.8466C13.4259 43.5109 13.6324 44.1656 14.0442 44.6862C14.0687 44.7172 14.1147 44.7192 14.1426 44.6912C14.1693 44.6646 14.1688 44.6212 14.1417 44.5951L14.0906 44.546Z"/>
</mask>
<path d="M14.0906 44.546C13.648 44.0167 13.4244 43.3382 13.4658 42.6494V42.8466C13.4259 43.5109 13.6324 44.1656 14.0442 44.6862C14.0687 44.7172 14.1147 44.7192 14.1426 44.6912C14.1693 44.6646 14.1688 44.6212 14.1417 44.5951L14.0906 44.546Z" fill="#090B0B"/>
<path d="M14.0906 44.546L13.055 45.412L13.1021 45.4684L13.1551 45.5194L14.0906 44.546ZM13.4658 42.6494H14.8158L12.1182 42.5685L13.4658 42.6494ZM13.4658 42.8466L14.8134 42.9277L14.8158 42.8872V42.8466H13.4658ZM14.1417 44.5951L13.2062 45.5685L14.1417 44.5951ZM14.0442 44.6862L12.9854 45.5238L14.0442 44.6862ZM15.1262 43.68C14.9046 43.415 14.7927 43.0752 14.8134 42.7304L12.1182 42.5685C12.0562 43.6011 12.3913 44.6184 13.055 45.412L15.1262 43.68ZM12.1158 42.6494V42.8466H14.8158V42.6494H12.1158ZM12.1183 42.7656C12.0584 43.7616 12.368 44.7433 12.9854 45.5238L15.1029 43.8486C14.8968 43.588 14.7934 43.2602 14.8134 42.9277L12.1183 42.7656ZM15.0771 43.6217L15.026 43.5727L13.1551 45.5194L13.2062 45.5685L15.0771 43.6217ZM15.0972 45.6458C15.6585 45.0845 15.6494 44.1718 15.0771 43.6217L13.2062 45.5685C12.6883 45.0707 12.6801 44.2446 13.188 43.7366L15.0972 45.6458ZM12.9854 45.5238C13.5264 46.2075 14.5159 46.2271 15.0972 45.6458L13.188 43.7366C13.7134 43.2112 14.611 43.2268 15.1029 43.8486L12.9854 45.5238Z" fill="#090B0B" mask="url(#path-17-inside-2_2_4225)"/>
</g>
<g opacity="0.12">
<mask id="path-19-inside-3_2_4225" fill="white">
<path d="M-nan -nanL43.2231 29.6693L36.59 33.4386C36.5408 33.4665 36.5317 33.5336 36.5717 33.5736C36.599 33.6008 36.6411 33.6065 36.6746 33.5875L43.2231 29.8666C43.6117 29.6979 43.9479 29.4282 44.1968 29.0855C44.4457 28.7428 44.5982 28.3396 44.6383 27.918C44.5548 28.2998 44.3834 28.6569 44.1377 28.9609C43.8921 29.265 43.5789 29.5075 43.2231 29.6693L-nan -nanZ"/>
</mask>
<path d="M-nan -nanL43.2231 29.6693L36.59 33.4386C36.5408 33.4665 36.5317 33.5336 36.5717 33.5736C36.599 33.6008 36.6411 33.6065 36.6746 33.5875L43.2231 29.8666C43.6117 29.6979 43.9479 29.4282 44.1968 29.0855C44.4457 28.7428 44.5982 28.3396 44.6383 27.918C44.5548 28.2998 44.3834 28.6569 44.1377 28.9609C43.8921 29.265 43.5789 29.5075 43.2231 29.6693L-nan -nanZ" fill="#090B0B"/>
<path d="M43.2231 29.8666L42.6857 28.6281L42.6192 28.657L42.5562 28.6928L43.2231 29.8666ZM44.6383 27.918L45.9822 28.0459L43.3195 27.6295L44.6383 27.918ZM36.6746 33.5875L36.0076 32.4137L36.6746 33.5875ZM36.59 33.4386L35.923 32.2648L36.59 33.4386ZM42.5562 28.4956L35.923 32.2648L37.2569 34.6123L43.8901 30.843L42.5562 28.4956ZM37.3415 34.7612L43.89 31.0403L42.5562 28.6928L36.0076 32.4137L37.3415 34.7612ZM43.7606 31.105C44.3705 30.8402 44.8984 30.4168 45.2891 29.8788L43.1045 28.2922C42.9974 28.4396 42.8528 28.5556 42.6857 28.6281L43.7606 31.105ZM45.2891 29.8788C45.6798 29.3408 45.9192 28.7079 45.9822 28.0459L43.2944 27.79C43.2771 27.9714 43.2116 28.1448 43.1045 28.2922L45.2891 29.8788ZM43.3195 27.6295C43.2808 27.8063 43.2015 27.9717 43.0877 28.1124L45.1878 29.8094C45.5653 29.3422 45.8288 28.7933 45.9571 28.2064L43.3195 27.6295ZM43.0877 28.1124C42.974 28.2532 42.829 28.3655 42.6642 28.4404L43.782 30.8982C44.3289 30.6495 44.8102 30.2767 45.1878 29.8094L43.0877 28.1124ZM35.6177 34.5287C36.0746 34.9851 36.78 35.0803 37.3415 34.7612L36.0076 32.4137C36.5022 32.1327 37.1234 32.2165 37.5258 32.6185L35.6177 34.5287ZM35.923 32.2648C35.0985 32.7334 34.9467 33.8585 35.6177 34.5287L37.5258 32.6185C38.1167 33.2088 37.9831 34.1996 37.2569 34.6123L35.923 32.2648Z" fill="#090B0B" mask="url(#path-19-inside-3_2_4225)"/>
</g>
<g opacity="0.25">
<mask id="path-21-inside-4_2_4225" fill="white">
<path d="M16.8911 11.2073L43.2176 26.1653C43.5736 26.3271 43.8868 26.5697 44.1325 26.8738C44.3782 27.178 44.5495 27.5353 44.6328 27.9173C44.5929 27.4955 44.4406 27.0921 44.1917 26.7492C43.9427 26.4063 43.6064 26.1366 43.2176 25.968L16.8911 11.0101C15.0044 9.93807 13.4609 10.8285 13.4609 12.9896V13.1868C13.4609 11.0259 15.0044 10.1354 16.8911 11.2073Z"/>
</mask>
<path d="M16.8911 11.2073L43.2176 26.1653C43.5736 26.3271 43.8868 26.5697 44.1325 26.8738C44.3782 27.178 44.5495 27.5353 44.6328 27.9173C44.5929 27.4955 44.4406 27.0921 44.1917 26.7492C43.9427 26.4063 43.6064 26.1366 43.2176 25.968L16.8911 11.0101C15.0044 9.93807 13.4609 10.8285 13.4609 12.9896V13.1868C13.4609 11.0259 15.0044 10.1354 16.8911 11.2073Z" fill="#090B0B"/>
<path d="M16.8911 11.2073L17.558 10.0336L17.558 10.0335L16.8911 11.2073ZM43.2176 26.1653L42.5507 27.339L42.6036 27.3691L42.659 27.3942L43.2176 26.1653ZM44.6328 27.9173L43.3138 28.205L45.9768 27.7902L44.6328 27.9173ZM43.2176 25.968L42.5507 27.1418L42.6139 27.1777L42.6806 27.2066L43.2176 25.968ZM16.8911 11.0101L16.2242 12.1839L16.2242 12.1839L16.8911 11.0101ZM16.2242 12.3811L42.5507 27.339L43.8845 24.9915L17.558 10.0336L16.2242 12.3811ZM42.659 27.3942C42.8237 27.4691 42.9686 27.5814 43.0823 27.7221L45.1827 26.0255C44.805 25.558 44.3234 25.185 43.7763 24.9363L42.659 27.3942ZM43.0823 27.7221C43.196 27.8629 43.2753 28.0282 43.3138 28.205L45.9518 27.6296C45.8237 27.0424 45.5604 26.4931 45.1827 26.0255L43.0823 27.7221ZM45.9768 27.7902C45.9142 27.1279 45.675 26.4945 45.2841 25.9561L43.0992 27.5423C43.2062 27.6897 43.2717 27.863 43.2888 28.0443L45.9768 27.7902ZM45.2841 25.9561C44.8932 25.4177 44.365 24.9941 43.7546 24.7294L42.6806 27.2066C42.8477 27.279 42.9923 27.395 43.0992 27.5423L45.2841 25.9561ZM43.8845 24.7943L17.558 9.83633L16.2242 12.1839L42.5507 27.1418L43.8845 24.7943ZM17.5581 9.83634C16.3625 9.15706 14.9713 8.93871 13.7938 9.61814C12.6136 10.2992 12.1109 11.6147 12.1109 12.9896H14.8109C14.8109 12.2035 15.08 11.9932 15.1432 11.9567C15.2092 11.9187 15.533 11.7911 16.2242 12.1839L17.5581 9.83634ZM12.1109 12.9896V13.1868H14.8109V12.9896H12.1109ZM14.8109 13.1868C14.8109 12.4008 15.08 12.1905 15.1432 12.1541C15.2092 12.116 15.5331 11.9884 16.2243 12.3811L17.558 10.0335C16.3625 9.35433 14.9712 9.13607 13.7938 9.81548C12.6136 10.4965 12.1109 11.8119 12.1109 13.1868H14.8109Z" fill="#090B0B" mask="url(#path-21-inside-4_2_4225)"/>
</g>
</g>
<defs>
<linearGradient id="paint0_linear_2_4225" x1="74.1034" y1="10.3662" x2="74.1034" y2="18.4662" gradientUnits="userSpaceOnUse">
<stop stop-color="white"/>
<stop offset="1" stop-color="white" stop-opacity="0"/>
</linearGradient>
<linearGradient id="paint1_linear_2_4225" x1="81.4341" y1="10.3662" x2="81.4341" y2="18.4662" gradientUnits="userSpaceOnUse">
<stop stop-color="white"/>
<stop offset="1" stop-color="white" stop-opacity="0"/>
</linearGradient>
<linearGradient id="paint2_linear_2_4225" x1="86.0486" y1="10.3662" x2="86.0486" y2="18.4662" gradientUnits="userSpaceOnUse">
<stop stop-color="white"/>
<stop offset="1" stop-color="white" stop-opacity="0"/>
</linearGradient>
<linearGradient id="paint3_linear_2_4225" x1="96.4059" y1="10.1846" x2="96.4059" y2="18.6465" gradientUnits="userSpaceOnUse">
<stop stop-color="white"/>
<stop offset="1" stop-color="white" stop-opacity="0"/>
</linearGradient>
<linearGradient id="paint4_linear_2_4225" x1="105.146" y1="10.3662" x2="105.146" y2="18.4662" gradientUnits="userSpaceOnUse">
<stop stop-color="white"/>
<stop offset="1" stop-color="white" stop-opacity="0"/>
</linearGradient>
<linearGradient id="paint5_linear_2_4225" x1="29.4324" y1="12.674" x2="6.77626" y2="35.3301" gradientUnits="userSpaceOnUse">
<stop stop-color="#00A0FF"/>
<stop offset="0.00657" stop-color="#00A1FF"/>
<stop offset="0.2601" stop-color="#00BEFF"/>
<stop offset="0.5122" stop-color="#00D2FF"/>
<stop offset="0.7604" stop-color="#00DFFF"/>
<stop offset="1" stop-color="#00E3FF"/>
</linearGradient>
<linearGradient id="paint6_linear_2_4225" x1="45.6776" y1="27.9175" x2="13.0119" y2="27.9175" gradientUnits="userSpaceOnUse">
<stop stop-color="#FFE000"/>
<stop offset="0.4087" stop-color="#FFBD00"/>
<stop offset="0.7754" stop-color="#FFA500"/>
<stop offset="1" stop-color="#FF9C00"/>
</linearGradient>
<linearGradient id="paint7_linear_2_4225" x1="33.5144" y1="31.0154" x2="2.79091" y2="61.7389" gradientUnits="userSpaceOnUse">
<stop stop-color="#FF3A44"/>
<stop offset="1" stop-color="#C31162"/>
</linearGradient>
<linearGradient id="paint8_linear_2_4225" x1="9.84956" y1="1.15362" x2="23.5689" y2="14.873" gradientUnits="userSpaceOnUse">
<stop stop-color="#32A071"/>
<stop offset="0.0685" stop-color="#2DA771"/>
<stop offset="0.4762" stop-color="#15CF74"/>
<stop offset="0.8009" stop-color="#06E775"/>
<stop offset="1" stop-color="#00F076"/>
</linearGradient>
<clipPath id="clip0_2_4225">
<rect y="0.916016" width="182.249" height="54" rx="8" fill="white"/>
</clipPath>
</defs>
</svg>
