<svg width="64" height="60" viewBox="0 0 64 60" fill="none" xmlns="http://www.w3.org/2000/svg">
<g id="instagram">
<g id="instagram_2">
<path d="M45.7814 20.1543C45.7814 21.6849 44.4592 22.9258 42.8282 22.9258C41.1973 22.9258 39.8751 21.6849 39.8751 20.1543C39.8751 18.6237 41.1973 17.3829 42.8282 17.3829C44.4592 17.3829 45.7814 18.6237 45.7814 20.1543Z" fill="url(#paint0_linear_44_650)"/>
<path fill-rule="evenodd" clip-rule="evenodd" d="M32.0001 39.5545C37.4367 39.5545 41.8439 35.4184 41.8439 30.3163C41.8439 25.2142 37.4367 21.0781 32.0001 21.0781C26.5636 21.0781 22.1564 25.2142 22.1564 30.3163C22.1564 35.4184 26.5636 39.5545 32.0001 39.5545ZM32.0001 35.8592C35.2621 35.8592 37.9064 33.3776 37.9064 30.3163C37.9064 27.255 35.2621 24.7734 32.0001 24.7734C28.7382 24.7734 26.0939 27.255 26.0939 30.3163C26.0939 33.3776 28.7382 35.8592 32.0001 35.8592Z" fill="url(#paint1_linear_44_650)"/>
<path fill-rule="evenodd" clip-rule="evenodd" d="M12.3126 29.5772C12.3126 23.3686 12.3126 20.2643 13.6001 17.8929C14.7326 15.807 16.5397 14.1111 18.7624 13.0482C21.2892 11.84 24.597 11.84 31.2126 11.84H32.7876C39.4032 11.84 42.7111 11.84 45.2379 13.0482C47.4605 14.1111 49.2676 15.807 50.4001 17.8929C51.6876 20.2643 51.6876 23.3686 51.6876 29.5772V31.0554C51.6876 37.264 51.6876 40.3683 50.4001 42.7397C49.2676 44.8256 47.4605 46.5215 45.2379 47.5844C42.7111 48.7926 39.4032 48.7926 32.7876 48.7926H31.2126C24.597 48.7926 21.2892 48.7926 18.7624 47.5844C16.5397 46.5215 14.7326 44.8256 13.6001 42.7397C12.3126 40.3683 12.3126 37.264 12.3126 31.0554V29.5772ZM31.2126 15.5352H32.7876C36.1604 15.5352 38.4532 15.5381 40.2254 15.674C41.9517 15.8064 42.8345 16.0463 43.4503 16.3408C44.9321 17.0493 46.1368 18.1799 46.8918 19.5705C47.2056 20.1485 47.4612 20.977 47.6023 22.597C47.7471 24.2602 47.7501 26.412 47.7501 29.5772V31.0554C47.7501 34.2206 47.7471 36.3724 47.6023 38.0356C47.4612 39.6556 47.2056 40.4841 46.8918 41.0621C46.1368 42.4527 44.9321 43.5833 43.4503 44.2918C42.8345 44.5863 41.9517 44.8262 40.2254 44.9586C38.4532 45.0945 36.1604 45.0974 32.7876 45.0974H31.2126C27.8398 45.0974 25.5471 45.0945 23.7748 44.9586C22.0486 44.8262 21.1658 44.5863 20.5499 44.2918C19.0682 43.5833 17.8634 42.4527 17.1084 41.0621C16.7947 40.4841 16.539 39.6556 16.398 38.0356C16.2532 36.3724 16.2501 34.2206 16.2501 31.0554V29.5772C16.2501 26.412 16.2532 24.2602 16.398 22.597C16.539 20.977 16.7947 20.1485 17.1084 19.5705C17.8634 18.1799 19.0682 17.0493 20.5499 16.3408C21.1658 16.0463 22.0486 15.8064 23.7748 15.674C25.5471 15.5381 27.8398 15.5352 31.2126 15.5352Z" fill="url(#paint2_linear_44_650)"/>
</g>
</g>
<defs>
<linearGradient id="paint0_linear_44_650" x1="32.0001" y1="11.84" x2="32.0001" y2="48.7926" gradientUnits="userSpaceOnUse">
<stop stop-color="#00D4F1"/>
<stop offset="0.0001" stop-color="#00CFEB"/>
<stop offset="0.51" stop-color="#5AEBFF"/>
<stop offset="1" stop-color="#00B6CF"/>
</linearGradient>
<linearGradient id="paint1_linear_44_650" x1="32.0001" y1="11.84" x2="32.0001" y2="48.7926" gradientUnits="userSpaceOnUse">
<stop stop-color="#00D4F1"/>
<stop offset="0.0001" stop-color="#00CFEB"/>
<stop offset="0.51" stop-color="#5AEBFF"/>
<stop offset="1" stop-color="#00B6CF"/>
</linearGradient>
<linearGradient id="paint2_linear_44_650" x1="32.0001" y1="11.84" x2="32.0001" y2="48.7926" gradientUnits="userSpaceOnUse">
<stop stop-color="#00D4F1"/>
<stop offset="0.0001" stop-color="#00CFEB"/>
<stop offset="0.51" stop-color="#5AEBFF"/>
<stop offset="1" stop-color="#00B6CF"/>
</linearGradient>
</defs>
</svg>
