<svg width="48" height="49" viewBox="0 0 48 49" fill="none" xmlns="http://www.w3.org/2000/svg">
<path fill-rule="evenodd" clip-rule="evenodd" d="M4.36365 6.10352C4.36365 4.51222 4.82339 2.98609 5.64173 1.86087C6.46007 0.735656 7.56998 0.103516 8.72728 0.103516H39.2727C40.43 0.103516 41.54 0.735656 42.3583 1.86087C43.1766 2.98609 43.6364 4.51222 43.6364 6.10352V30.1035C43.6364 31.6948 43.1766 33.2209 42.3583 34.3462C41.54 35.4714 40.43 36.1035 39.2727 36.1035H8.72728C7.56998 36.1035 6.46007 35.4714 5.64173 34.3462C4.82339 33.2209 4.36365 31.6948 4.36365 30.1035V6.10352ZM8.72728 6.10352H39.2727V30.1035H8.72728V6.10352Z" fill="url(#paint0_linear_51_1351)"/>
<path d="M2.18182 42.1035C1.60316 42.1035 1.04821 42.4196 0.63904 42.9822C0.229869 43.5448 0 44.3079 0 45.1035C0 45.8992 0.229869 46.6622 0.63904 47.2248C1.04821 47.7874 1.60316 48.1035 2.18182 48.1035H45.8182C46.3968 48.1035 46.9518 47.7874 47.361 47.2248C47.7701 46.6622 48 45.8992 48 45.1035C48 44.3079 47.7701 43.5448 47.361 42.9822C46.9518 42.4196 46.3968 42.1035 45.8182 42.1035H2.18182Z" fill="url(#paint1_linear_51_1351)"/>
<defs>
<linearGradient id="paint0_linear_51_1351" x1="4.36365" y1="-8.44645" x2="49.3243" y2="-6.24527" gradientUnits="userSpaceOnUse">
<stop stop-color="#00C5D4"/>
<stop offset="1"/>
</linearGradient>
<linearGradient id="paint1_linear_51_1351" x1="-2.10171e-06" y1="40.6785" x2="48.7942" y2="58.1968" gradientUnits="userSpaceOnUse">
<stop stop-color="#00C5D4"/>
<stop offset="1"/>
</linearGradient>
</defs>
</svg>
