<svg width="48" height="48" viewBox="0 0 48 48" fill="none" xmlns="http://www.w3.org/2000/svg">
<g id="white icons">
<path id="Vector" fill-rule="evenodd" clip-rule="evenodd" d="M4.36377 6C4.36377 4.4087 4.82351 2.88258 5.64185 1.75736C6.46019 0.632141 7.5701 0 8.72741 0H39.2729C40.4302 0 41.5401 0.632141 42.3584 1.75736C43.1768 2.88258 43.6365 4.4087 43.6365 6V30C43.6365 31.5913 43.1768 33.1174 42.3584 34.2426C41.5401 35.3679 40.4302 36 39.2729 36H8.72741C7.5701 36 6.46019 35.3679 5.64185 34.2426C4.82351 33.1174 4.36377 31.5913 4.36377 30V6ZM8.72741 6H39.2729V30H8.72741V6Z" fill="white"/>
<path id="Vector_2" d="M2.18182 42C1.60316 42 1.04821 42.3161 0.63904 42.8787C0.229869 43.4413 0 44.2044 0 45C0 45.7956 0.229869 46.5587 0.63904 47.1213C1.04821 47.6839 1.60316 48 2.18182 48H45.8182C46.3968 48 46.9518 47.6839 47.361 47.1213C47.7701 46.5587 48 45.7956 48 45C48 44.2044 47.7701 43.4413 47.361 42.8787C46.9518 42.3161 46.3968 42 45.8182 42H2.18182Z" fill="white"/>
</g>
</svg>
