<svg width="319" height="165" viewBox="0 0 319 165" fill="none" xmlns="http://www.w3.org/2000/svg">
<path d="M178.856 155.704H177.872L185.528 141.424H187.832V157H185.528V145.048L186.032 145.168L179.576 157H177.152L170.696 145.192L171.2 145.072V157H168.896V141.424H171.2L178.856 155.704ZM197.03 157.264C195.862 157.264 194.79 157.016 193.814 156.52C192.838 156.024 192.062 155.312 191.486 154.384C190.91 153.456 190.622 152.344 190.622 151.048C190.622 149.736 190.91 148.616 191.486 147.688C192.062 146.744 192.838 146.024 193.814 145.528C194.79 145.032 195.862 144.784 197.03 144.784C198.198 144.784 199.262 145.032 200.222 145.528C201.182 146.024 201.95 146.744 202.526 147.688C203.102 148.616 203.39 149.736 203.39 151.048C203.39 152.344 203.102 153.456 202.526 154.384C201.95 155.312 201.182 156.024 200.222 156.52C199.262 157.016 198.198 157.264 197.03 157.264ZM197.03 155.272C197.75 155.272 198.414 155.112 199.022 154.792C199.646 154.456 200.142 153.976 200.51 153.352C200.894 152.712 201.086 151.944 201.086 151.048C201.086 150.136 200.894 149.36 200.51 148.72C200.142 148.08 199.646 147.592 199.022 147.256C198.414 146.92 197.75 146.752 197.03 146.752C196.31 146.752 195.638 146.92 195.014 147.256C194.39 147.576 193.886 148.056 193.502 148.696C193.118 149.336 192.926 150.12 192.926 151.048C192.926 151.944 193.11 152.712 193.478 153.352C193.862 153.976 194.366 154.456 194.99 154.792C195.614 155.112 196.294 155.272 197.03 155.272ZM205.801 145.024H208.105V157H205.801V145.024ZM212.665 144.784C213.337 144.784 213.945 144.88 214.489 145.072C215.033 145.264 215.497 145.552 215.881 145.936C216.265 146.304 216.561 146.768 216.769 147.328C216.993 147.872 217.105 148.496 217.105 149.2V157H214.825V149.704C214.825 148.76 214.593 148.056 214.129 147.592C213.681 147.112 212.993 146.872 212.065 146.872C211.345 146.872 210.689 147.04 210.097 147.376C209.505 147.712 209.017 148.16 208.633 148.72C208.265 149.264 208.041 149.88 207.961 150.568L207.937 149.248C208.017 148.608 208.185 148.016 208.441 147.472C208.713 146.928 209.049 146.456 209.449 146.056C209.865 145.64 210.345 145.328 210.889 145.12C211.433 144.896 212.025 144.784 212.665 144.784ZM229.361 153.112H231.545C231.417 153.896 231.113 154.6 230.633 155.224C230.153 155.848 229.521 156.344 228.737 156.712C227.953 157.08 227.033 157.264 225.977 157.264C224.729 157.264 223.617 157 222.641 156.472C221.665 155.944 220.897 155.216 220.337 154.288C219.777 153.36 219.497 152.28 219.497 151.048C219.497 149.8 219.769 148.712 220.313 147.784C220.857 146.84 221.609 146.104 222.569 145.576C223.529 145.048 224.625 144.784 225.857 144.784C227.153 144.784 228.241 145.04 229.121 145.552C230.001 146.064 230.649 146.824 231.065 147.832C231.497 148.824 231.673 150.064 231.593 151.552H221.777C221.857 152.272 222.073 152.912 222.425 153.472C222.793 154.032 223.273 154.472 223.865 154.792C224.473 155.112 225.169 155.272 225.953 155.272C226.833 155.272 227.569 155.072 228.161 154.672C228.753 154.272 229.153 153.752 229.361 153.112ZM225.881 146.752C224.841 146.752 223.977 147.032 223.289 147.592C222.601 148.136 222.145 148.864 221.921 149.776H229.289C229.225 148.8 228.873 148.056 228.233 147.544C227.593 147.016 226.809 146.752 225.881 146.752ZM232.969 145.024H240.721V147.016H232.969V145.024ZM235.705 141.856H237.985V157H235.705V141.856ZM245.663 140.08V142.552H242.807V140.08H245.663ZM243.095 145.024H245.375V157H243.095V145.024ZM258.557 146.992L250.517 155.776L250.205 155.032H258.653V157H248.453V155.032L256.565 146.248L256.877 146.992H248.453V145.024H258.557V146.992ZM266.222 157.24C265.198 157.24 264.262 156.976 263.414 156.448C262.566 155.92 261.894 155.192 261.398 154.264C260.902 153.32 260.654 152.24 260.654 151.024C260.654 149.808 260.902 148.736 261.398 147.808C261.91 146.864 262.606 146.128 263.486 145.6C264.366 145.056 265.35 144.784 266.438 144.784C267.638 144.784 268.566 145.064 269.222 145.624C269.894 146.184 270.358 146.936 270.614 147.88C270.886 148.824 271.022 149.872 271.022 151.024C271.022 151.664 270.942 152.344 270.782 153.064C270.622 153.784 270.366 154.464 270.014 155.104C269.662 155.744 269.174 156.264 268.55 156.664C267.926 157.048 267.15 157.24 266.222 157.24ZM266.87 155.248C267.718 155.248 268.43 155.064 269.006 154.696C269.598 154.312 270.038 153.8 270.326 153.16C270.614 152.52 270.758 151.808 270.758 151.024C270.758 150.176 270.606 149.432 270.302 148.792C270.014 148.152 269.574 147.656 268.982 147.304C268.406 146.952 267.702 146.776 266.87 146.776C265.622 146.776 264.654 147.176 263.966 147.976C263.294 148.776 262.958 149.792 262.958 151.024C262.958 151.856 263.126 152.592 263.462 153.232C263.798 153.856 264.254 154.352 264.83 154.72C265.422 155.072 266.102 155.248 266.87 155.248ZM270.758 145.024H273.062V157H270.95C270.95 157 270.934 156.856 270.902 156.568C270.87 156.264 270.838 155.904 270.806 155.488C270.774 155.072 270.758 154.704 270.758 154.384V145.024ZM275.227 145.024H282.979V147.016H275.227V145.024ZM277.963 141.856H280.243V157H277.963V141.856ZM287.92 140.08V142.552H285.064V140.08H287.92ZM285.352 145.024H287.632V157H285.352V145.024ZM296.663 157.264C295.495 157.264 294.423 157.016 293.447 156.52C292.471 156.024 291.695 155.312 291.119 154.384C290.543 153.456 290.255 152.344 290.255 151.048C290.255 149.736 290.543 148.616 291.119 147.688C291.695 146.744 292.471 146.024 293.447 145.528C294.423 145.032 295.495 144.784 296.663 144.784C297.831 144.784 298.895 145.032 299.855 145.528C300.815 146.024 301.583 146.744 302.159 147.688C302.735 148.616 303.023 149.736 303.023 151.048C303.023 152.344 302.735 153.456 302.159 154.384C301.583 155.312 300.815 156.024 299.855 156.52C298.895 157.016 297.831 157.264 296.663 157.264ZM296.663 155.272C297.383 155.272 298.047 155.112 298.655 154.792C299.279 154.456 299.775 153.976 300.143 153.352C300.527 152.712 300.719 151.944 300.719 151.048C300.719 150.136 300.527 149.36 300.143 148.72C299.775 148.08 299.279 147.592 298.655 147.256C298.047 146.92 297.383 146.752 296.663 146.752C295.943 146.752 295.271 146.92 294.647 147.256C294.023 147.576 293.519 148.056 293.135 148.696C292.751 149.336 292.559 150.12 292.559 151.048C292.559 151.944 292.743 152.712 293.111 153.352C293.495 153.976 293.999 154.456 294.623 154.792C295.247 155.112 295.927 155.272 296.663 155.272ZM305.434 145.024H307.738V157H305.434V145.024ZM312.298 144.784C312.97 144.784 313.578 144.88 314.122 145.072C314.666 145.264 315.13 145.552 315.514 145.936C315.898 146.304 316.194 146.768 316.402 147.328C316.626 147.872 316.738 148.496 316.738 149.2V157H314.458V149.704C314.458 148.76 314.226 148.056 313.762 147.592C313.314 147.112 312.626 146.872 311.698 146.872C310.978 146.872 310.322 147.04 309.73 147.376C309.138 147.712 308.65 148.16 308.266 148.72C307.898 149.264 307.674 149.88 307.594 150.568L307.57 149.248C307.65 148.608 307.818 148.016 308.074 147.472C308.346 146.928 308.682 146.456 309.082 146.056C309.498 145.64 309.978 145.328 310.522 145.12C311.066 144.896 311.658 144.784 312.298 144.784Z" fill="black" fill-opacity="0.8"/>
<path d="M6 0.666667C3.05448 0.666667 0.666667 3.05448 0.666667 6C0.666667 8.94552 3.05448 11.3333 6 11.3333C8.94552 11.3333 11.3333 8.94552 11.3333 6C11.3333 3.05448 8.94552 0.666667 6 0.666667ZM5 6L5 150H7L7 6H5Z" fill="black" fill-opacity="0.8"/>
<path d="M151 150.007C151.552 150.007 152 149.559 152 149.007C152 148.455 151.552 148.007 151 148.007L151 150.007ZM5.99995 150L151 150.007L151 148.007L6.00005 148L5.99995 150Z" fill="black" fill-opacity="0.8"/>
</svg>
