<svg width="50" height="50" viewBox="0 0 50 50" fill="none" xmlns="http://www.w3.org/2000/svg">
<path d="M1.97441 48.0462L18.5629 31.3865M39.4523 23.9781L34.4867 38.9415C34.4071 39.1809 34.2713 39.3974 34.0907 39.5728C33.9101 39.7483 33.6901 39.8774 33.4493 39.9494L3.00924 49.0384C2.73499 49.1202 2.44367 49.1249 2.16696 49.052C1.89025 48.979 1.63876 48.8313 1.43986 48.6248C1.24096 48.4183 1.10227 48.1609 1.03888 47.8808C0.975488 47.6006 0.989829 47.3083 1.08034 47.0358L10.9646 17.2609C11.0355 17.0471 11.1513 16.8511 11.3042 16.6862C11.4571 16.5214 11.6436 16.3915 11.8509 16.3054L25.8927 10.4991C26.1782 10.3807 26.4922 10.3498 26.7951 10.4104C27.098 10.4709 27.3763 10.6202 27.5948 10.8394L39.0744 22.3708C39.2798 22.5771 39.4239 22.8367 39.4907 23.1206C39.5574 23.4045 39.5442 23.7014 39.4523 23.9781Z" stroke="url(#paint0_linear_51_1086)" stroke-width="1.5" stroke-linecap="round" stroke-linejoin="round"/>
<path d="M41.3526 2.44419L47.5146 8.63269C47.9777 9.07761 48.3475 9.61094 48.6026 10.2014C48.8576 10.7918 48.9926 11.4275 48.9997 12.071C49.0068 12.7146 48.8858 13.3531 48.6438 13.9491C48.4019 14.545 48.0438 15.0865 47.5907 15.5415C47.1375 15.9966 46.5984 16.3562 46.005 16.5993C45.4116 16.8423 44.7758 16.9638 44.135 16.9566C43.4942 16.9495 42.8612 16.8139 42.2733 16.5578C41.6854 16.3017 41.1543 15.9302 40.7113 15.4652L34.5467 9.27667C33.6772 8.36396 33.1981 7.14562 33.212 5.88256C33.2259 4.61949 33.7317 3.41209 34.6211 2.51891C35.5104 1.62573 36.7127 1.11778 37.9703 1.10381C39.228 1.08985 40.4437 1.57098 41.3526 2.44419Z" fill="url(#paint1_linear_51_1086)" stroke="url(#paint2_linear_51_1086)" stroke-width="1.5" stroke-linecap="round" stroke-linejoin="round"/>
<path d="M24.0915 25.8316C23.7309 25.4566 23.2994 25.1574 22.8224 24.9516C22.3454 24.7458 21.8323 24.6375 21.3132 24.633C20.794 24.6284 20.2791 24.7278 19.7986 24.9252C19.3181 25.1227 18.8816 25.4142 18.5145 25.7829C18.1473 26.1516 17.857 26.59 17.6604 27.0726C17.4638 27.5552 17.3649 28.0723 17.3694 28.5936C17.3739 29.115 17.4818 29.6303 17.6867 30.1094C17.8916 30.5884 18.1895 31.0217 18.5629 31.384C19.3003 32.0992 20.288 32.495 21.3132 32.4861C22.3383 32.4771 23.319 32.0642 24.0439 31.3361C24.7689 30.6081 25.1801 29.6232 25.189 28.5936C25.1979 27.5641 24.8038 26.5722 24.0915 25.8316Z" stroke="url(#paint3_linear_51_1086)" stroke-width="1.5" stroke-linecap="round" stroke-linejoin="round"/>
<defs>
<linearGradient id="paint0_linear_51_1086" x1="0.999998" y1="1.18338" x2="45.131" y2="3.15415" gradientUnits="userSpaceOnUse">
<stop stop-color="#00C5D4"/>
<stop offset="1"/>
</linearGradient>
<linearGradient id="paint1_linear_51_1086" x1="33.2117" y1="-2.66166" x2="51.2939" y2="-1.8535" gradientUnits="userSpaceOnUse">
<stop stop-color="#00C5D4"/>
<stop offset="1"/>
</linearGradient>
<linearGradient id="paint2_linear_51_1086" x1="33.2117" y1="-2.66166" x2="51.2939" y2="-1.8535" gradientUnits="userSpaceOnUse">
<stop stop-color="#00C5D4"/>
<stop offset="1"/>
</linearGradient>
<linearGradient id="paint3_linear_51_1086" x1="17.3693" y1="22.7676" x2="26.3253" y2="23.1678" gradientUnits="userSpaceOnUse">
<stop stop-color="#00C5D4"/>
<stop offset="1"/>
</linearGradient>
</defs>
</svg>
