<svg width="39" height="39" viewBox="0 0 39 39" fill="none" xmlns="http://www.w3.org/2000/svg">
<g id="Group">
<path id="Vector" d="M1.59188 37.2041L14.3199 24.4761M30.3479 18.8161L26.5379 30.2481C26.4768 30.431 26.3726 30.5964 26.234 30.7304C26.0955 30.8645 25.9267 30.9631 25.7419 31.0181L2.38588 37.9621C2.17546 38.0246 1.95193 38.0282 1.73962 37.9725C1.52731 37.9168 1.33435 37.8039 1.18173 37.6461C1.02912 37.4883 0.922706 37.2917 0.874068 37.0777C0.82543 36.8636 0.836434 36.6403 0.905881 36.4321L8.48988 13.6841C8.54423 13.5208 8.63309 13.3711 8.75042 13.2451C8.86775 13.1191 9.01081 13.0199 9.16988 12.9541L19.9439 8.51812C20.1629 8.42765 20.4038 8.40407 20.6363 8.45034C20.8687 8.49661 21.0822 8.61067 21.2499 8.77812L30.0579 17.5881C30.2155 17.7457 30.3261 17.944 30.3773 18.1609C30.4285 18.3778 30.4183 18.6047 30.3479 18.8161Z" stroke="white" stroke-width="1.5" stroke-linecap="round" stroke-linejoin="round"/>
<path id="Vector_2" d="M31.8058 2.36412L36.5338 7.09212C36.8891 7.43204 37.173 7.83951 37.3686 8.29061C37.5643 8.7417 37.6679 9.22734 37.6733 9.71902C37.6788 10.2107 37.5859 10.6985 37.4003 11.1538C37.2146 11.6091 36.9399 12.0228 36.5922 12.3705C36.2445 12.7182 35.8309 12.9929 35.3756 13.1786C34.9202 13.3642 34.4324 13.4571 33.9407 13.4516C33.4491 13.4462 32.9634 13.3426 32.5123 13.1469C32.0612 12.9512 31.6538 12.6674 31.3138 12.3121L26.5838 7.58412C25.9167 6.88681 25.5491 5.95601 25.5598 4.99102C25.5705 4.02604 25.9585 3.10359 26.6409 2.42121C27.3233 1.73882 28.2458 1.35074 29.2107 1.34007C30.1757 1.3294 31.1085 1.69699 31.8058 2.36412Z" fill="white" stroke="white" stroke-width="1.5" stroke-linecap="round" stroke-linejoin="round"/>
<path id="Vector_3" d="M18.5617 20.232C18.2849 19.9455 17.9539 19.717 17.5879 19.5597C17.2219 19.4025 16.8282 19.3197 16.4299 19.3163C16.0315 19.3128 15.6365 19.3887 15.2678 19.5396C14.8991 19.6904 14.5642 19.9132 14.2825 20.1948C14.0008 20.4765 13.7781 20.8115 13.6272 21.1802C13.4764 21.5489 13.4005 21.9439 13.4039 22.3422C13.4074 22.7406 13.4901 23.1342 13.6474 23.5002C13.8046 23.8663 14.0331 24.1973 14.3197 24.474C14.8855 25.0205 15.6433 25.3229 16.4299 25.3161C17.2165 25.3092 17.9689 24.9937 18.5251 24.4375C19.0814 23.8813 19.3969 23.1288 19.4037 22.3422C19.4105 21.5556 19.1081 20.7978 18.5617 20.232Z" stroke="white" stroke-width="1.5" stroke-linecap="round" stroke-linejoin="round"/>
</g>
</svg>
