<svg width="48" height="45" viewBox="0 0 48 45" fill="none" xmlns="http://www.w3.org/2000/svg">
<g id="quora">
<path id="quora_2" fill-rule="evenodd" clip-rule="evenodd" d="M28.2227 38.4675C26.6459 38.8815 24.9834 39.1028 23.2657 39.1028C13.1261 39.1028 4.90637 31.3887 4.90637 21.8729C4.90637 12.3571 13.1261 4.64294 23.2657 4.64294C33.4053 4.64294 41.6251 12.3571 41.6251 21.8729C41.6251 27.3094 38.9422 32.1578 34.7512 35.3156C35.9056 36.6835 37.2452 37.7427 38.7095 37.7427C41.1245 37.7427 41.8511 35.9184 41.9126 35.0063H44.5626C44.5626 39.8347 41.4862 43.0715 36.4287 43.2255C34.646 43.2797 31.6591 43.3707 28.2227 38.4675ZM26.6067 35.8302C25.6381 36.1664 24.5301 36.346 23.2657 36.346C15.6709 36.346 13.7189 29.8662 13.7189 21.8729C13.7189 13.8796 15.6727 7.39973 23.2657 7.39973C30.8588 7.39973 32.8126 13.8796 32.8126 21.8729C32.8126 25.1171 32.4911 28.1119 31.6012 30.5255C30.1625 28.1505 27.8925 25.3189 23.7078 25.3189C20.2236 25.3189 17.5551 26.6576 16.6564 27.327L17.7625 29.4013C18.0697 29.3057 18.8455 29.1144 19.4908 29.1144C20.2973 29.1144 23.1548 28.8717 25.92 34.4988C26.1502 34.9671 26.3791 35.4104 26.6067 35.8302Z" fill="url(#paint0_linear_44_652)"/>
</g>
<defs>
<linearGradient id="paint0_linear_44_652" x1="24.7345" y1="4.64294" x2="24.7345" y2="43.238" gradientUnits="userSpaceOnUse">
<stop stop-color="#00D4F1"/>
<stop offset="0.0001" stop-color="#00CFEB"/>
<stop offset="0.51" stop-color="#5AEBFF"/>
<stop offset="1" stop-color="#00B6CF"/>
</linearGradient>
</defs>
</svg>
