<svg width="64" height="60" viewBox="0 0 64 60" fill="none" xmlns="http://www.w3.org/2000/svg">
<g id="reddit">
<path id="Subtract" fill-rule="evenodd" clip-rule="evenodd" d="M39.913 16.4616C39.8881 16.61 39.8751 16.7623 39.8751 16.9175C39.8751 18.4844 41.1973 19.7546 42.8282 19.7546C44.4592 19.7546 45.7814 18.4844 45.7814 16.9175C45.7814 15.3505 44.4592 14.0803 42.8282 14.0803C42.1015 14.0803 41.4361 14.3325 40.9216 14.7508L33.2526 12.9335L30.4808 23.5853C26.7935 23.8184 23.4774 24.8912 20.9757 26.5109C20.2654 25.8416 19.2923 25.4289 18.2189 25.4289C16.0443 25.4289 14.2814 27.1226 14.2814 29.2118C14.2814 30.6658 15.1351 31.9281 16.3873 32.5614C16.2968 33.0126 16.2501 33.4729 16.2501 33.9404C16.2501 39.6858 23.3016 44.3434 32.0001 44.3434C40.6986 44.3434 47.7501 39.6858 47.7501 33.9404C47.7501 33.4729 47.7034 33.0126 47.613 32.5614C48.8651 31.9281 49.7189 30.6658 49.7189 29.2118C49.7189 27.1226 47.956 25.4289 45.7814 25.4289C44.7079 25.4289 43.7348 25.8416 43.0245 26.5109C40.2991 24.7463 36.6068 23.6308 32.5212 23.5431L34.6851 15.2272L39.913 16.4616ZM25.1095 34.8862C26.7405 34.8862 28.0626 33.6159 28.0626 32.049C28.0626 30.4821 26.7405 29.2118 25.1095 29.2118C23.4785 29.2118 22.1564 30.4821 22.1564 32.049C22.1564 33.6159 23.4785 34.8862 25.1095 34.8862ZM38.8907 34.8862C40.5217 34.8862 41.8439 33.6159 41.8439 32.049C41.8439 30.4821 40.5217 29.2118 38.8907 29.2118C37.2598 29.2118 35.9376 30.4821 35.9376 32.049C35.9376 33.6159 37.2598 34.8862 38.8907 34.8862ZM25.6555 37.8821C25.2032 37.5924 24.592 37.7099 24.2904 38.1444C23.9889 38.579 24.1111 39.1662 24.5635 39.4559C26.7056 40.8279 29.3529 41.514 32.0001 41.514C34.6474 41.514 37.2946 40.8279 39.4368 39.4559C39.8891 39.1662 40.0114 38.579 39.7098 38.1444C39.4082 37.7099 38.7971 37.5924 38.3447 37.8821C36.5332 39.0424 34.2667 39.6225 32.0001 39.6225C30.656 39.6225 29.3119 39.4185 28.0626 39.0104C27.2053 38.7304 26.3928 38.3543 25.6555 37.8821Z" fill="url(#paint0_linear_44_654)"/>
</g>
<defs>
<linearGradient id="paint0_linear_44_654" x1="32.0001" y1="12.9335" x2="32.0001" y2="44.3434" gradientUnits="userSpaceOnUse">
<stop stop-color="#00D4F1"/>
<stop offset="0.0001" stop-color="#00CFEB"/>
<stop offset="0.51" stop-color="#5AEBFF"/>
<stop offset="1" stop-color="#00B6CF"/>
</linearGradient>
</defs>
</svg>
