<svg width="48" height="48" viewBox="0 0 48 48" fill="none" xmlns="http://www.w3.org/2000/svg">
<path d="M22.8 18H38.8C37.9 15.7 36.5253 13.7247 34.676 12.074C32.8267 10.4233 30.7013 9.26533 28.3 8.6L22.8 18ZM18.2 22L26.2 8.2C25.8333 8.13333 25.4667 8.08333 25.1 8.05C24.7333 8.01667 24.3667 8 24 8C21.8 8 19.75 8.41667 17.85 9.25C15.95 10.0833 14.2667 11.2 12.8 12.6L18.2 22ZM8.5 28H19.4L11.4 14.2C10.3333 15.5667 9.5 17.0753 8.9 18.726C8.3 20.3767 8 22.1347 8 24C8 24.7 8.042 25.3753 8.126 26.026C8.21 26.6767 8.33467 27.3347 8.5 28ZM19.7 39.4L25.1 30H9.2C10.1 32.3 11.4753 34.2753 13.326 35.926C15.1767 37.5767 17.3013 38.7347 19.7 39.4ZM24 40C26.2 40 28.25 39.5833 30.15 38.75C32.05 37.9167 33.7333 36.8 35.2 35.4L29.8 26L21.8 39.8C22.1667 39.8667 22.5253 39.9167 22.876 39.95C23.2267 39.9833 23.6013 40 24 40ZM36.6 33.8C37.6667 32.4333 38.5 30.9253 39.1 29.276C39.7 27.6267 40 25.868 40 24C40 23.3 39.9587 22.6253 39.876 21.976C39.7933 21.3267 39.668 20.668 39.5 20H28.6L36.6 33.8ZM24 44C21.2667 44 18.6833 43.4747 16.25 42.424C13.8167 41.3733 11.692 39.94 9.876 38.124C8.05867 36.308 6.62533 34.1833 5.576 31.75C4.52667 29.3167 4.00133 26.7333 4 24C4 21.2333 4.52533 18.642 5.576 16.226C6.62667 13.81 8.06 11.6933 9.876 9.876C11.692 8.05867 13.816 6.62533 16.248 5.576C18.68 4.52667 21.264 4.00133 24 4C26.7667 4 29.3587 4.52533 31.776 5.576C34.1933 6.62667 36.3093 8.06 38.124 9.876C39.9413 11.692 41.3747 13.8087 42.424 16.226C43.4733 18.6433 43.9987 21.2347 44 24C44 26.7333 43.4747 29.3167 42.424 31.75C41.3733 34.1833 39.94 36.3087 38.124 38.126C36.308 39.942 34.1913 41.3753 31.774 42.426C29.3567 43.4767 26.7653 44.0013 24 44Z" fill="white"/>
</svg>
