<svg width="48" height="48" viewBox="0 0 48 48" fill="none" xmlns="http://www.w3.org/2000/svg">
<g id="white icons">
<path id="Vector" d="M25.8462 13.2H47.0769C47.3217 13.2 47.5565 13.0736 47.7296 12.8485C47.9027 12.6235 48 12.3183 48 12V2.4C48 1.76348 47.8055 1.15303 47.4593 0.702944C47.1131 0.252857 46.6435 0 46.1538 0H26.7692C26.5244 0 26.2896 0.126428 26.1165 0.351472C25.9434 0.576516 25.8462 0.88174 25.8462 1.2V13.2ZM36.9231 31.2H47.0769C47.3217 31.2 47.5565 31.0736 47.7296 30.8485C47.9027 30.6235 48 30.3183 48 30V19.2C48 18.8817 47.9027 18.5765 47.7296 18.3515C47.5565 18.1264 47.3217 18 47.0769 18H36.9231V31.2ZM14.7692 18H33.2308V31.2H14.7692V18ZM11.0769 18H0.923077C0.678262 18 0.443474 18.1264 0.270363 18.3515C0.0972527 18.5765 0 18.8817 0 19.2V30C0 30.3183 0.0972527 30.6235 0.270363 30.8485C0.443474 31.0736 0.678262 31.2 0.923077 31.2H11.0769V18ZM25.8462 36V46.8C25.8462 47.1183 25.9434 47.4235 26.1165 47.6485C26.2896 47.8736 26.5244 48 26.7692 48H46.1538C46.6435 48 47.1131 47.7471 47.4593 47.2971C47.8055 46.847 48 46.2365 48 45.6V37.2C48 36.8817 47.9027 36.5765 47.7296 36.3515C47.5565 36.1264 47.3217 36 47.0769 36H25.8462ZM22.1538 13.2V1.2C22.1538 0.88174 22.0566 0.576516 21.8835 0.351472C21.7104 0.126428 21.4756 0 21.2308 0H1.84615C1.35652 0 0.886947 0.252857 0.540726 0.702944C0.194505 1.15303 0 1.76348 0 2.4V12C0 12.3183 0.0972527 12.6235 0.270363 12.8485C0.443474 13.0736 0.678262 13.2 0.923077 13.2H22.1538ZM22.1538 36H0.923077C0.678262 36 0.443474 36.1264 0.270363 36.3515C0.0972527 36.5765 0 36.8817 0 37.2V45.6C0 46.2365 0.194505 46.847 0.540726 47.2971C0.886947 47.7471 1.35652 48 1.84615 48H21.2308C21.4756 48 21.7104 47.8736 21.8835 47.6485C22.0566 47.4235 22.1538 47.1183 22.1538 46.8V36Z" fill="white"/>
</g>
</svg>
