<svg width="48" height="48" viewBox="0 0 48 48" fill="none" xmlns="http://www.w3.org/2000/svg">
<g id="Social Icons">
<path id="BG" fill-rule="evenodd" clip-rule="evenodd" d="M0 24C0 10.7452 10.7452 0 24 0C37.2548 0 48 10.7452 48 24C48 37.2548 37.2548 48 24 48C10.7452 48 0 37.2548 0 24Z" fill="#FF0000"/>
<path id="Path" fill-rule="evenodd" clip-rule="evenodd" d="M34.0016 15.7494C35.1031 16.0517 35.9706 16.9423 36.265 18.0733C36.8 20.1231 36.8 24.4001 36.8 24.4001C36.8 24.4001 36.8 28.6769 36.265 30.7269C35.9706 31.8579 35.1031 32.7485 34.0016 33.0509C32.0053 33.6001 24 33.6001 24 33.6001C24 33.6001 15.9946 33.6001 13.9982 33.0509C12.8967 32.7485 12.0292 31.8579 11.7348 30.7269C11.2 28.6769 11.2 24.4001 11.2 24.4001C11.2 24.4001 11.2 20.1231 11.7348 18.0733C12.0292 16.9423 12.8967 16.0517 13.9982 15.7494C15.9946 15.2001 24 15.2001 24 15.2001C24 15.2001 32.0053 15.2001 34.0016 15.7494ZM21.6 20.8V28.8L28 24.8001L21.6 20.8Z" fill="white"/>
</g>
</svg>
